<?xml version="1.0" encoding="UTF-8" standalone="no"?>
<!DOCTYPE svg PUBLIC "-//W3C//DTD SVG 1.1//EN" "http://www.w3.org/Graphics/SVG/1.1/DTD/svg11.dtd">
<svg width="100%" height="100%" viewBox="0 0 1043 74" version="1.1" xmlns="http://www.w3.org/2000/svg" xmlns:xlink="http://www.w3.org/1999/xlink" xml:space="preserve" xmlns:serif="http://www.serif.com/" style="fill-rule:evenodd;clip-rule:evenodd;stroke-linejoin:round;stroke-miterlimit:1.41421;">
    <g transform="matrix(1,0,0,1,-960.306,-1061.49)">
        <rect x="960.306" y="1062.89" width="12.4" height="32.1" style="fill:white;fill-rule:nonzero;"/>
        <path d="M998.906,1123.69L998.906,1102.19L1005.11,1102.19C1006.71,1102.19 1008.17,1102.36 1009.51,1102.69C1010.84,1103.03 1011.99,1103.61 1012.96,1104.44C1013.92,1105.28 1014.69,1106.38 1015.26,1107.74C1015.82,1109.11 1016.11,1110.83 1016.11,1112.89C1016.11,1117.03 1015.04,1119.86 1012.91,1121.39C1010.77,1122.93 1007.97,1123.69 1004.51,1123.69L998.906,1123.69ZM998.906,1092.19L998.906,1073.49L1004.11,1073.49C1007.71,1073.49 1010.34,1074.19 1012.01,1075.59C1013.67,1076.99 1014.51,1079.39 1014.51,1082.79C1014.51,1086.19 1013.59,1088.61 1011.76,1090.04C1009.92,1091.48 1007.01,1092.19 1003.01,1092.19L998.906,1092.19ZM984.506,1062.89L984.506,1134.29L1008.81,1134.29C1013.01,1134.29 1016.52,1133.73 1019.36,1132.59C1022.19,1131.46 1024.49,1129.94 1026.26,1128.04C1028.02,1126.14 1029.27,1123.93 1030.01,1121.39C1030.74,1118.86 1031.11,1116.19 1031.11,1113.39C1031.11,1108.59 1029.94,1104.76 1027.61,1101.89C1025.27,1099.03 1022.11,1097.33 1018.11,1096.79L1018.11,1096.59C1021.71,1095.59 1024.41,1093.71 1026.21,1090.94C1028.01,1088.18 1028.91,1084.86 1028.91,1080.99C1028.91,1077.59 1028.41,1074.73 1027.41,1072.39C1026.41,1070.06 1025.01,1068.19 1023.21,1066.79C1021.41,1065.39 1019.26,1064.39 1016.76,1063.79C1014.26,1063.19 1011.54,1062.89 1008.61,1062.89L984.506,1062.89Z" style="fill:white;fill-rule:nonzero;"/>
        <path d="M1053.01,1098.59C1053.01,1093.79 1053.12,1089.73 1053.36,1086.39C1053.59,1083.06 1054.06,1080.33 1054.76,1078.19C1055.46,1076.06 1056.46,1074.51 1057.76,1073.54C1059.06,1072.58 1060.77,1072.09 1062.91,1072.09C1065.04,1072.09 1066.76,1072.58 1068.06,1073.54C1069.36,1074.51 1070.36,1076.06 1071.06,1078.19C1071.76,1080.33 1072.22,1083.06 1072.46,1086.39C1072.69,1089.73 1072.81,1093.79 1072.81,1098.59C1072.81,1103.39 1072.69,1107.48 1072.46,1110.84C1072.22,1114.21 1071.76,1116.94 1071.06,1119.04C1070.36,1121.14 1069.36,1122.68 1068.06,1123.64C1066.76,1124.61 1065.04,1125.09 1062.91,1125.09C1060.77,1125.09 1059.06,1124.61 1057.76,1123.64C1056.46,1122.68 1055.46,1121.14 1054.76,1119.04C1054.06,1116.94 1053.59,1114.21 1053.36,1110.84C1053.12,1107.48 1053.01,1103.39 1053.01,1098.59ZM1038.61,1098.59C1038.61,1104.06 1038.86,1109.06 1039.36,1113.59C1039.86,1118.13 1040.96,1122.03 1042.66,1125.29C1044.36,1128.56 1046.81,1131.06 1050.01,1132.79C1053.21,1134.53 1057.51,1135.39 1062.91,1135.39C1068.31,1135.39 1072.61,1134.53 1075.81,1132.79C1079.01,1131.06 1081.46,1128.56 1083.16,1125.29C1084.86,1122.03 1085.96,1118.13 1086.46,1113.59C1086.96,1109.06 1087.21,1104.06 1087.21,1098.59C1087.21,1093.19 1086.96,1088.21 1086.46,1083.64C1085.96,1079.08 1084.86,1075.16 1083.16,1071.89C1081.46,1068.63 1079.01,1066.08 1075.81,1064.24C1072.61,1062.41 1068.31,1061.49 1062.91,1061.49C1057.51,1061.49 1053.21,1062.41 1050.01,1064.24C1046.81,1066.08 1044.36,1068.63 1042.66,1071.89C1040.96,1075.16 1039.86,1079.08 1039.36,1083.64C1038.86,1088.21 1038.61,1093.19 1038.61,1098.59Z" style="fill:white;fill-rule:nonzero;"/>
        <path d="M1090.31,1062.89L1106.71,1098.19L1088.91,1134.29L1104.71,1134.29L1114.91,1110.09L1125.21,1134.29L1141.41,1134.29L1123.61,1098.19L1140.21,1062.89L1124.51,1062.89L1115.41,1085.99L1106.21,1062.89L1090.31,1062.89Z" style="fill:white;fill-rule:nonzero;"/>
        <path d="M1186.91,1062.89L1147.01,1062.89L1147.01,1134.29L1187.91,1134.29L1187.91,1122.49L1161.41,1122.49L1161.41,1103.29L1185.41,1103.29L1185.41,1091.49L1161.41,1091.49L1161.41,1074.69L1186.91,1074.69L1186.91,1062.89Z" style="fill:white;fill-rule:nonzero;"/>
        <path d="M1206.71,1111.99L1192.31,1111.99L1192.31,1114.89C1192.31,1121.49 1194.06,1126.56 1197.56,1130.09C1201.06,1133.63 1206.87,1135.39 1215.01,1135.39C1222.81,1135.39 1228.89,1133.68 1233.26,1130.24C1237.62,1126.81 1239.81,1121.33 1239.81,1113.79C1239.81,1111.59 1239.61,1109.59 1239.21,1107.79C1238.81,1105.99 1238.09,1104.34 1237.06,1102.84C1236.02,1101.34 1234.64,1099.94 1232.91,1098.64C1231.17,1097.34 1228.94,1096.09 1226.21,1094.89L1215.11,1090.09C1212.04,1088.83 1210.04,1087.44 1209.11,1085.94C1208.17,1084.44 1207.71,1082.59 1207.71,1080.39C1207.71,1079.33 1207.82,1078.29 1208.06,1077.29C1208.29,1076.29 1208.72,1075.41 1209.36,1074.64C1209.99,1073.88 1210.84,1073.26 1211.91,1072.79C1212.97,1072.33 1214.31,1072.09 1215.91,1072.09C1218.71,1072.09 1220.71,1073.01 1221.91,1074.84C1223.11,1076.68 1223.71,1079.29 1223.71,1082.69L1237.51,1082.69L1237.51,1080.69C1237.51,1077.29 1236.96,1074.38 1235.86,1071.94C1234.76,1069.51 1233.22,1067.51 1231.26,1065.94C1229.29,1064.38 1226.96,1063.24 1224.26,1062.54C1221.56,1061.84 1218.61,1061.49 1215.41,1061.49C1208.54,1061.49 1203.14,1063.23 1199.21,1066.69C1195.27,1070.16 1193.31,1075.43 1193.31,1082.49C1193.31,1085.43 1193.67,1088.01 1194.41,1090.24C1195.14,1092.48 1196.29,1094.44 1197.86,1096.14C1199.42,1097.84 1201.37,1099.33 1203.71,1100.59C1206.04,1101.86 1208.81,1103.03 1212.01,1104.09C1214.41,1104.89 1216.42,1105.68 1218.06,1106.44C1219.69,1107.21 1221.01,1108.06 1222.01,1108.99C1223.01,1109.93 1223.72,1110.98 1224.16,1112.14C1224.59,1113.31 1224.81,1114.69 1224.81,1116.29C1224.81,1119.29 1223.92,1121.51 1222.16,1122.94C1220.39,1124.38 1218.41,1125.09 1216.21,1125.09C1214.34,1125.09 1212.79,1124.83 1211.56,1124.29C1210.32,1123.76 1209.34,1123.03 1208.61,1122.09C1207.87,1121.16 1207.37,1120.01 1207.11,1118.64C1206.84,1117.28 1206.71,1115.76 1206.71,1114.09L1206.71,1111.99Z" style="fill:white;fill-rule:nonzero;"/>
        <path d="M1271.01,1062.89L1271.01,1134.29L1285.41,1134.29L1285.41,1102.59L1302.21,1102.59L1302.21,1134.29L1316.61,1134.29L1316.61,1062.89L1302.21,1062.89L1302.21,1090.19L1285.41,1090.19L1285.41,1062.89L1271.01,1062.89Z" style="fill:white;fill-rule:nonzero;"/>
        <path d="M1339.51,1098.59C1339.51,1093.79 1339.62,1089.73 1339.86,1086.39C1340.09,1083.06 1340.56,1080.33 1341.26,1078.19C1341.96,1076.06 1342.96,1074.51 1344.26,1073.54C1345.56,1072.58 1347.27,1072.09 1349.41,1072.09C1351.54,1072.09 1353.26,1072.58 1354.56,1073.54C1355.86,1074.51 1356.86,1076.06 1357.56,1078.19C1358.26,1080.33 1358.72,1083.06 1358.96,1086.39C1359.19,1089.73 1359.31,1093.79 1359.31,1098.59C1359.31,1103.39 1359.19,1107.48 1358.96,1110.84C1358.72,1114.21 1358.26,1116.94 1357.56,1119.04C1356.86,1121.14 1355.86,1122.68 1354.56,1123.64C1353.26,1124.61 1351.54,1125.09 1349.41,1125.09C1347.27,1125.09 1345.56,1124.61 1344.26,1123.64C1342.96,1122.68 1341.96,1121.14 1341.26,1119.04C1340.56,1116.94 1340.09,1114.21 1339.86,1110.84C1339.62,1107.48 1339.51,1103.39 1339.51,1098.59ZM1325.11,1098.59C1325.11,1104.06 1325.36,1109.06 1325.86,1113.59C1326.36,1118.13 1327.46,1122.03 1329.16,1125.29C1330.86,1128.56 1333.31,1131.06 1336.51,1132.79C1339.71,1134.53 1344.01,1135.39 1349.41,1135.39C1354.81,1135.39 1359.11,1134.53 1362.31,1132.79C1365.51,1131.06 1367.96,1128.56 1369.66,1125.29C1371.36,1122.03 1372.46,1118.13 1372.96,1113.59C1373.46,1109.06 1373.71,1104.06 1373.71,1098.59C1373.71,1093.19 1373.46,1088.21 1372.96,1083.64C1372.46,1079.08 1371.36,1075.16 1369.66,1071.89C1367.96,1068.63 1365.51,1066.08 1362.31,1064.24C1359.11,1062.41 1354.81,1061.49 1349.41,1061.49C1344.01,1061.49 1339.71,1062.41 1336.51,1064.24C1333.31,1066.08 1330.86,1068.63 1329.16,1071.89C1327.46,1075.16 1326.36,1079.08 1325.86,1083.64C1325.36,1088.21 1325.11,1093.19 1325.11,1098.59Z" style="fill:white;fill-rule:nonzero;"/>
        <path d="M1395.71,1062.89L1381.31,1062.89L1381.31,1112.69C1381.31,1117.49 1381.94,1121.39 1383.21,1124.39C1384.47,1127.39 1386.17,1129.71 1388.31,1131.34C1390.44,1132.98 1392.87,1134.06 1395.61,1134.59C1398.34,1135.13 1401.17,1135.39 1404.11,1135.39C1407.04,1135.39 1409.87,1135.09 1412.61,1134.49C1415.34,1133.89 1417.77,1132.73 1419.91,1130.99C1422.04,1129.26 1423.74,1126.91 1425.01,1123.94C1426.27,1120.98 1426.91,1117.23 1426.91,1112.69L1426.91,1062.89L1412.51,1062.89L1412.51,1112.69C1412.51,1114.49 1412.39,1116.14 1412.16,1117.64C1411.92,1119.14 1411.49,1120.44 1410.86,1121.54C1410.22,1122.64 1409.37,1123.51 1408.31,1124.14C1407.24,1124.78 1405.84,1125.09 1404.11,1125.09C1402.44,1125.09 1401.06,1124.78 1399.96,1124.14C1398.86,1123.51 1397.99,1122.64 1397.36,1121.54C1396.72,1120.44 1396.29,1119.14 1396.06,1117.64C1395.82,1116.14 1395.71,1114.49 1395.71,1112.69L1395.71,1062.89Z" style="fill:white;fill-rule:nonzero;"/>
        <path d="M1447.61,1111.99L1433.21,1111.99L1433.21,1114.89C1433.21,1121.49 1434.96,1126.56 1438.46,1130.09C1441.96,1133.63 1447.77,1135.39 1455.91,1135.39C1463.71,1135.39 1469.79,1133.68 1474.16,1130.24C1478.52,1126.81 1480.71,1121.33 1480.71,1113.79C1480.71,1111.59 1480.51,1109.59 1480.11,1107.79C1479.71,1105.99 1478.99,1104.34 1477.96,1102.84C1476.92,1101.34 1475.54,1099.94 1473.81,1098.64C1472.07,1097.34 1469.84,1096.09 1467.11,1094.89L1456.01,1090.09C1452.94,1088.83 1450.94,1087.44 1450.01,1085.94C1449.07,1084.44 1448.61,1082.59 1448.61,1080.39C1448.61,1079.33 1448.72,1078.29 1448.96,1077.29C1449.19,1076.29 1449.62,1075.41 1450.26,1074.64C1450.89,1073.88 1451.74,1073.26 1452.81,1072.79C1453.87,1072.33 1455.21,1072.09 1456.81,1072.09C1459.61,1072.09 1461.61,1073.01 1462.81,1074.84C1464.01,1076.68 1464.61,1079.29 1464.61,1082.69L1478.41,1082.69L1478.41,1080.69C1478.41,1077.29 1477.86,1074.38 1476.76,1071.94C1475.66,1069.51 1474.12,1067.51 1472.16,1065.94C1470.19,1064.38 1467.86,1063.24 1465.16,1062.54C1462.46,1061.84 1459.51,1061.49 1456.31,1061.49C1449.44,1061.49 1444.04,1063.23 1440.11,1066.69C1436.17,1070.16 1434.21,1075.43 1434.21,1082.49C1434.21,1085.43 1434.57,1088.01 1435.31,1090.24C1436.04,1092.48 1437.19,1094.44 1438.76,1096.14C1440.32,1097.84 1442.27,1099.33 1444.61,1100.59C1446.94,1101.86 1449.71,1103.03 1452.91,1104.09C1455.31,1104.89 1457.32,1105.68 1458.96,1106.44C1460.59,1107.21 1461.91,1108.06 1462.91,1108.99C1463.91,1109.93 1464.62,1110.98 1465.06,1112.14C1465.49,1113.31 1465.71,1114.69 1465.71,1116.29C1465.71,1119.29 1464.82,1121.51 1463.06,1122.94C1461.29,1124.38 1459.31,1125.09 1457.11,1125.09C1455.24,1125.09 1453.69,1124.83 1452.46,1124.29C1451.22,1123.76 1450.24,1123.03 1449.51,1122.09C1448.77,1121.16 1448.27,1120.01 1448.01,1118.64C1447.74,1117.28 1447.61,1115.76 1447.61,1114.09L1447.61,1111.99Z" style="fill:white;fill-rule:nonzero;"/>
        <path d="M1527.81,1062.89L1487.91,1062.89L1487.91,1134.29L1528.81,1134.29L1528.81,1122.49L1502.31,1122.49L1502.31,1103.29L1526.31,1103.29L1526.31,1091.49L1502.31,1091.49L1502.31,1074.69L1527.81,1074.69L1527.81,1062.89Z" style="fill:white;fill-rule:nonzero;"/>
        <path d="M1547.61,1111.99L1533.21,1111.99L1533.21,1114.89C1533.21,1121.49 1534.96,1126.56 1538.46,1130.09C1541.96,1133.63 1547.77,1135.39 1555.91,1135.39C1563.71,1135.39 1569.79,1133.68 1574.16,1130.24C1578.52,1126.81 1580.71,1121.33 1580.71,1113.79C1580.71,1111.59 1580.51,1109.59 1580.11,1107.79C1579.71,1105.99 1578.99,1104.34 1577.96,1102.84C1576.92,1101.34 1575.54,1099.94 1573.81,1098.64C1572.07,1097.34 1569.84,1096.09 1567.11,1094.89L1556.01,1090.09C1552.94,1088.83 1550.94,1087.44 1550.01,1085.94C1549.07,1084.44 1548.61,1082.59 1548.61,1080.39C1548.61,1079.33 1548.72,1078.29 1548.96,1077.29C1549.19,1076.29 1549.62,1075.41 1550.26,1074.64C1550.89,1073.88 1551.74,1073.26 1552.81,1072.79C1553.87,1072.33 1555.21,1072.09 1556.81,1072.09C1559.61,1072.09 1561.61,1073.01 1562.81,1074.84C1564.01,1076.68 1564.61,1079.29 1564.61,1082.69L1578.41,1082.69L1578.41,1080.69C1578.41,1077.29 1577.86,1074.38 1576.76,1071.94C1575.66,1069.51 1574.12,1067.51 1572.16,1065.94C1570.19,1064.38 1567.86,1063.24 1565.16,1062.54C1562.46,1061.84 1559.51,1061.49 1556.31,1061.49C1549.44,1061.49 1544.04,1063.23 1540.11,1066.69C1536.17,1070.16 1534.21,1075.43 1534.21,1082.49C1534.21,1085.43 1534.57,1088.01 1535.31,1090.24C1536.04,1092.48 1537.19,1094.44 1538.76,1096.14C1540.32,1097.84 1542.27,1099.33 1544.61,1100.59C1546.94,1101.86 1549.71,1103.03 1552.91,1104.09C1555.31,1104.89 1557.32,1105.68 1558.96,1106.44C1560.59,1107.21 1561.91,1108.06 1562.91,1108.99C1563.91,1109.93 1564.62,1110.98 1565.06,1112.14C1565.49,1113.31 1565.71,1114.69 1565.71,1116.29C1565.71,1119.29 1564.82,1121.51 1563.06,1122.94C1561.29,1124.38 1559.31,1125.09 1557.11,1125.09C1555.24,1125.09 1553.69,1124.83 1552.46,1124.29C1551.22,1123.76 1550.24,1123.03 1549.51,1122.09C1548.77,1121.16 1548.27,1120.01 1548.01,1118.64C1547.74,1117.28 1547.61,1115.76 1547.61,1114.09L1547.61,1111.99Z" style="fill:white;fill-rule:nonzero;"/>
        <rect x="1589.71" y="1062.89" width="12.4" height="32.1" style="fill:white;fill-rule:nonzero;"/>
        <path d="M1650.81,1098.59C1650.81,1093.79 1650.92,1089.73 1651.16,1086.39C1651.39,1083.06 1651.86,1080.33 1652.56,1078.19C1653.26,1076.06 1654.26,1074.51 1655.56,1073.54C1656.86,1072.58 1658.57,1072.09 1660.71,1072.09C1662.84,1072.09 1664.56,1072.58 1665.86,1073.54C1667.16,1074.51 1668.16,1076.06 1668.86,1078.19C1669.56,1080.33 1670.02,1083.06 1670.26,1086.39C1670.49,1089.73 1670.61,1093.79 1670.61,1098.59C1670.61,1103.39 1670.49,1107.48 1670.26,1110.84C1670.02,1114.21 1669.56,1116.94 1668.86,1119.04C1668.16,1121.14 1667.16,1122.68 1665.86,1123.64C1664.56,1124.61 1662.84,1125.09 1660.71,1125.09C1658.57,1125.09 1656.86,1124.61 1655.56,1123.64C1654.26,1122.68 1653.26,1121.14 1652.56,1119.04C1651.86,1116.94 1651.39,1114.21 1651.16,1110.84C1650.92,1107.48 1650.81,1103.39 1650.81,1098.59ZM1636.41,1098.59C1636.41,1104.06 1636.66,1109.06 1637.16,1113.59C1637.66,1118.13 1638.76,1122.03 1640.46,1125.29C1642.16,1128.56 1644.61,1131.06 1647.81,1132.79C1651.01,1134.53 1655.31,1135.39 1660.71,1135.39C1666.11,1135.39 1670.41,1134.53 1673.61,1132.79C1676.81,1131.06 1679.26,1128.56 1680.96,1125.29C1682.66,1122.03 1683.76,1118.13 1684.26,1113.59C1684.76,1109.06 1685.01,1104.06 1685.01,1098.59C1685.01,1093.19 1684.76,1088.21 1684.26,1083.64C1683.76,1079.08 1682.66,1075.16 1680.96,1071.89C1679.26,1068.63 1676.81,1066.08 1673.61,1064.24C1670.41,1062.41 1666.11,1061.49 1660.71,1061.49C1655.31,1061.49 1651.01,1062.41 1647.81,1064.24C1644.61,1066.08 1642.16,1068.63 1640.46,1071.89C1638.76,1075.16 1637.66,1079.08 1637.16,1083.64C1636.66,1088.21 1636.41,1093.19 1636.41,1098.59Z" style="fill:white;fill-rule:nonzero;"/>
        <path d="M1707.01,1062.89L1692.61,1062.89L1692.61,1112.69C1692.61,1117.49 1693.24,1121.39 1694.51,1124.39C1695.77,1127.39 1697.47,1129.71 1699.61,1131.34C1701.74,1132.98 1704.17,1134.06 1706.91,1134.59C1709.64,1135.13 1712.47,1135.39 1715.41,1135.39C1718.34,1135.39 1721.17,1135.09 1723.91,1134.49C1726.64,1133.89 1729.07,1132.73 1731.21,1130.99C1733.34,1129.26 1735.04,1126.91 1736.31,1123.94C1737.57,1120.98 1738.21,1117.23 1738.21,1112.69L1738.21,1062.89L1723.81,1062.89L1723.81,1112.69C1723.81,1114.49 1723.69,1116.14 1723.46,1117.64C1723.22,1119.14 1722.79,1120.44 1722.16,1121.54C1721.52,1122.64 1720.67,1123.51 1719.61,1124.14C1718.54,1124.78 1717.14,1125.09 1715.41,1125.09C1713.74,1125.09 1712.36,1124.78 1711.26,1124.14C1710.16,1123.51 1709.29,1122.64 1708.66,1121.54C1708.02,1120.44 1707.59,1119.14 1707.36,1117.64C1707.12,1116.14 1707.01,1114.49 1707.01,1112.69L1707.01,1062.89Z" style="fill:white;fill-rule:nonzero;"/>
        <path d="M1789.11,1062.89L1743.51,1062.89L1743.51,1074.69L1759.11,1074.69L1759.11,1134.29L1773.51,1134.29L1773.51,1074.69L1789.11,1074.69L1789.11,1062.89Z" style="fill:white;fill-rule:nonzero;"/>
        <path d="M1835.91,1062.89L1819.31,1062.89L1819.31,1134.29L1832.51,1134.29L1832.51,1084.29L1832.71,1084.29L1850.31,1134.29L1866.71,1134.29L1866.71,1062.89L1853.51,1062.89L1853.51,1111.79L1853.31,1111.79L1835.91,1062.89Z" style="fill:white;fill-rule:nonzero;"/>
        <path d="M1889.61,1098.59C1889.61,1093.79 1889.72,1089.73 1889.96,1086.39C1890.19,1083.06 1890.66,1080.33 1891.36,1078.19C1892.06,1076.06 1893.06,1074.51 1894.36,1073.54C1895.66,1072.58 1897.37,1072.09 1899.51,1072.09C1901.64,1072.09 1903.36,1072.58 1904.66,1073.54C1905.96,1074.51 1906.96,1076.06 1907.66,1078.19C1908.36,1080.33 1908.82,1083.06 1909.06,1086.39C1909.29,1089.73 1909.41,1093.79 1909.41,1098.59C1909.41,1103.39 1909.29,1107.48 1909.06,1110.84C1908.82,1114.21 1908.36,1116.94 1907.66,1119.04C1906.96,1121.14 1905.96,1122.68 1904.66,1123.64C1903.36,1124.61 1901.64,1125.09 1899.51,1125.09C1897.37,1125.09 1895.66,1124.61 1894.36,1123.64C1893.06,1122.68 1892.06,1121.14 1891.36,1119.04C1890.66,1116.94 1890.19,1114.21 1889.96,1110.84C1889.72,1107.48 1889.61,1103.39 1889.61,1098.59ZM1875.21,1098.59C1875.21,1104.06 1875.46,1109.06 1875.96,1113.59C1876.46,1118.13 1877.56,1122.03 1879.26,1125.29C1880.96,1128.56 1883.41,1131.06 1886.61,1132.79C1889.81,1134.53 1894.11,1135.39 1899.51,1135.39C1904.91,1135.39 1909.21,1134.53 1912.41,1132.79C1915.61,1131.06 1918.06,1128.56 1919.76,1125.29C1921.46,1122.03 1922.56,1118.13 1923.06,1113.59C1923.56,1109.06 1923.81,1104.06 1923.81,1098.59C1923.81,1093.19 1923.56,1088.21 1923.06,1083.64C1922.56,1079.08 1921.46,1075.16 1919.76,1071.89C1918.06,1068.63 1915.61,1066.08 1912.41,1064.24C1909.21,1062.41 1904.91,1061.49 1899.51,1061.49C1894.11,1061.49 1889.81,1062.41 1886.61,1064.24C1883.41,1066.08 1880.96,1068.63 1879.26,1071.89C1877.56,1075.16 1876.46,1079.08 1875.96,1083.64C1875.46,1088.21 1875.21,1093.19 1875.21,1098.59Z" style="fill:white;fill-rule:nonzero;"/>
        <path d="M1928.11,1062.89L1941.11,1134.29L1957.21,1134.29L1965.21,1082.49L1965.41,1082.49L1973.41,1134.29L1989.51,1134.29L2002.51,1062.89L1988.71,1062.89L1980.81,1115.69L1980.61,1115.69L1972.21,1062.89L1958.41,1062.89L1950.01,1115.69L1949.81,1115.69L1941.91,1062.89L1928.11,1062.89Z" style="fill:white;fill-rule:nonzero;"/>
    </g>
</svg>
