<?xml version="1.0" encoding="UTF-8" standalone="no"?>
<!DOCTYPE svg PUBLIC "-//W3C//DTD SVG 1.1//EN" "http://www.w3.org/Graphics/SVG/1.1/DTD/svg11.dtd">
<svg width="100%" height="100%" viewBox="0 0 901 76" version="1.1" xmlns="http://www.w3.org/2000/svg" xmlns:xlink="http://www.w3.org/1999/xlink" xml:space="preserve" xmlns:serif="http://www.serif.com/" style="fill-rule:evenodd;clip-rule:evenodd;stroke-linejoin:round;stroke-miterlimit:1.41421;">
    <g transform="matrix(1,0,0,1,-531.409,-1567.71)">
        <path d="M560.409,1605.96L554.659,1579.21L554.493,1579.21L548.743,1605.96L560.409,1605.96ZM561.993,1568.88L577.743,1628.38L565.243,1628.38L562.493,1615.79L546.659,1615.79L543.909,1628.38L531.409,1628.38L547.159,1568.88L561.993,1568.88Z" style="fill:white;fill-rule:nonzero;"/>
        <rect x="581.993" y="1568.88" width="11.5" height="59.5" style="fill:white;fill-rule:nonzero;"/>
        <rect x="601.993" y="1568.88" width="11.5" height="59.5" style="fill:white;fill-rule:nonzero;"/>
        <path d="M675.159,1568.88L641.909,1568.88L641.909,1628.38L675.993,1628.38L675.993,1618.54L653.909,1618.54L653.909,1602.54L673.909,1602.54L673.909,1592.71L653.909,1592.71L653.909,1578.71L675.159,1578.71L675.159,1568.88Z" style="fill:white;fill-rule:nonzero;"/>
        <path d="M681.659,1583.54L681.659,1628.38L693.159,1628.38L693.159,1598.62C693.159,1593.68 695.187,1591.21 699.243,1591.21C700.965,1591.21 702.215,1591.67 702.993,1592.58C703.771,1593.5 704.159,1595.12 704.159,1597.46L704.159,1628.38L715.659,1628.38L715.659,1595.12C715.659,1590.62 714.673,1587.38 712.701,1585.38C710.729,1583.38 707.909,1582.38 704.243,1582.38C701.743,1582.38 699.521,1582.89 697.576,1583.92C695.632,1584.94 694.048,1586.57 692.826,1588.79L692.659,1588.79L692.659,1583.54L681.659,1583.54Z" style="fill:white;fill-rule:nonzero;"/>
        <path d="M745.826,1624.21L745.826,1642.79L757.326,1642.79L757.326,1583.54L746.326,1583.54L746.326,1588.29L746.159,1588.29C744.882,1586.18 743.451,1584.67 741.868,1583.75C740.284,1582.83 738.326,1582.38 735.993,1582.38C731.271,1582.38 727.798,1584.22 725.576,1587.92C723.354,1591.61 722.243,1597.62 722.243,1605.96C722.243,1614.29 723.354,1620.26 725.576,1623.88C727.798,1627.49 731.271,1629.29 735.993,1629.29C738.159,1629.29 740.007,1628.89 741.534,1628.08C743.062,1627.28 744.437,1625.99 745.659,1624.21L745.826,1624.21ZM745.826,1605.96C745.826,1610.85 745.451,1614.53 744.701,1617C743.951,1619.47 742.298,1620.71 739.743,1620.71C737.243,1620.71 735.618,1619.47 734.868,1617C734.118,1614.53 733.743,1610.85 733.743,1605.96C733.743,1601.07 734.118,1597.39 734.868,1594.92C735.618,1592.44 737.243,1591.21 739.743,1591.21C742.298,1591.21 743.951,1592.44 744.701,1594.92C745.451,1597.39 745.826,1601.07 745.826,1605.96Z" style="fill:white;fill-rule:nonzero;"/>
        <path d="M787.993,1623.12L787.993,1628.38L798.993,1628.38L798.993,1583.54L787.493,1583.54L787.493,1613.29C787.493,1618.24 785.465,1620.71 781.409,1620.71C779.687,1620.71 778.437,1620.25 777.659,1619.33C776.882,1618.42 776.493,1616.79 776.493,1614.46L776.493,1583.54L764.993,1583.54L764.993,1616.79C764.993,1621.29 765.979,1624.5 767.951,1626.42C769.923,1628.33 772.743,1629.29 776.409,1629.29C778.909,1629.29 781.132,1628.82 783.076,1627.88C785.021,1626.93 786.604,1625.35 787.826,1623.12L787.993,1623.12Z" style="fill:white;fill-rule:nonzero;"/>
        <path d="M807.076,1568.21L807.076,1578.04L818.576,1578.04L818.576,1568.21L807.076,1568.21ZM807.076,1583.54L807.076,1628.38L818.576,1628.38L818.576,1583.54L807.076,1583.54Z" style="fill:white;fill-rule:nonzero;"/>
        <path d="M826.659,1583.54L826.659,1628.38L838.159,1628.38L838.159,1601.46C838.159,1599.96 838.409,1598.69 838.909,1597.67C839.409,1596.64 840.076,1595.81 840.909,1595.17C841.743,1594.53 842.659,1594.07 843.659,1593.79C844.659,1593.51 845.659,1593.38 846.659,1593.38C847.271,1593.38 847.868,1593.39 848.451,1593.42C849.034,1593.44 849.632,1593.49 850.243,1593.54L850.243,1582.54C849.909,1582.49 849.562,1582.44 849.201,1582.42C848.84,1582.39 848.493,1582.38 848.159,1582.38C845.771,1582.38 843.743,1583.03 842.076,1584.33C840.409,1585.64 838.993,1587.38 837.826,1589.54L837.659,1589.54L837.659,1583.54L826.659,1583.54Z" style="fill:white;fill-rule:nonzero;"/>
        <path d="M854.826,1568.21L854.826,1578.04L866.326,1578.04L866.326,1568.21L854.826,1568.21ZM854.826,1583.54L854.826,1628.38L866.326,1628.38L866.326,1583.54L854.826,1583.54Z" style="fill:white;fill-rule:nonzero;"/>
        <path d="M895.993,1600.88L884.243,1600.88L884.243,1599.12C884.243,1598.07 884.34,1597.01 884.534,1595.96C884.729,1594.9 885.048,1593.94 885.493,1593.08C885.937,1592.22 886.534,1591.53 887.284,1591C888.034,1590.47 888.993,1590.21 890.159,1590.21C891.326,1590.21 892.284,1590.44 893.034,1590.92C893.784,1591.39 894.368,1592.08 894.784,1593C895.201,1593.92 895.493,1595.03 895.659,1596.33C895.826,1597.64 895.937,1599.15 895.993,1600.88ZM884.243,1607.71L906.993,1607.71L906.993,1605.12C906.993,1601.68 906.771,1598.56 906.326,1595.75C905.882,1592.94 905.048,1590.56 903.826,1588.58C902.604,1586.61 900.923,1585.08 898.784,1584C896.646,1582.92 893.909,1582.38 890.576,1582.38C886.687,1582.38 883.576,1583.01 881.243,1584.29C878.909,1585.57 877.118,1587.29 875.868,1589.46C874.618,1591.62 873.784,1594.1 873.368,1596.88C872.951,1599.65 872.743,1602.54 872.743,1605.54C872.743,1608.38 872.868,1611.21 873.118,1614.04C873.368,1616.88 874.048,1619.43 875.159,1621.71C876.271,1623.99 877.993,1625.82 880.326,1627.21C882.659,1628.6 885.909,1629.29 890.076,1629.29C895.576,1629.29 899.604,1627.93 902.159,1625.21C904.715,1622.49 906.104,1618.51 906.326,1613.29L895.993,1613.29C895.659,1616.12 895.048,1618.24 894.159,1619.62C893.271,1621.01 891.854,1621.71 889.909,1621.71C888.854,1621.71 887.965,1621.42 887.243,1620.83C886.521,1620.25 885.937,1619.47 885.493,1618.5C885.048,1617.53 884.729,1616.42 884.534,1615.17C884.34,1613.92 884.243,1612.62 884.243,1611.29L884.243,1607.71Z" style="fill:white;fill-rule:nonzero;"/>
        <path d="M921.409,1613.71L911.076,1613.71L911.076,1615.29C911.076,1617.46 911.326,1619.42 911.826,1621.17C912.326,1622.92 913.201,1624.4 914.451,1625.62C915.701,1626.85 917.396,1627.76 919.534,1628.38C921.673,1628.99 924.354,1629.29 927.576,1629.29C930.021,1629.29 932.257,1629.04 934.284,1628.54C936.312,1628.04 938.062,1627.21 939.534,1626.04C941.007,1624.88 942.159,1623.42 942.993,1621.67C943.826,1619.92 944.243,1617.85 944.243,1615.46C944.243,1612.07 943.493,1609.39 941.993,1607.42C940.493,1605.44 937.937,1603.85 934.326,1602.62L927.409,1600.29C925.465,1599.68 924.146,1598.93 923.451,1598.04C922.757,1597.15 922.409,1596.15 922.409,1595.04C922.409,1593.43 922.951,1592.22 924.034,1591.42C925.118,1590.61 926.382,1590.21 927.826,1590.21C929.715,1590.21 931.034,1590.75 931.784,1591.83C932.534,1592.92 932.909,1594.62 932.909,1596.96L943.243,1596.96L943.243,1595.12C943.243,1591.07 941.993,1587.93 939.493,1585.71C936.993,1583.49 933.132,1582.38 927.909,1582.38C924.965,1582.38 922.451,1582.74 920.368,1583.46C918.284,1584.18 916.576,1585.15 915.243,1586.38C913.909,1587.6 912.937,1589.03 912.326,1590.67C911.715,1592.31 911.409,1594.04 911.409,1595.88C911.409,1599.04 912.215,1601.64 913.826,1603.67C915.437,1605.69 917.826,1607.26 920.993,1608.38L929.076,1611.29C930.187,1611.74 931.159,1612.33 931.993,1613.08C932.826,1613.83 933.243,1614.93 933.243,1616.38C933.243,1618.15 932.715,1619.49 931.659,1620.38C930.604,1621.26 929.187,1621.71 927.409,1621.71C925.465,1621.71 923.979,1621.11 922.951,1619.92C921.923,1618.72 921.409,1617.15 921.409,1615.21L921.409,1613.71Z" style="fill:white;fill-rule:nonzero;"/>
        <path d="M950.659,1584.96L950.659,1597.96L961.659,1597.96L961.659,1584.96L950.659,1584.96ZM950.659,1615.38L950.659,1628.38L961.659,1628.38L961.659,1615.38L950.659,1615.38Z" style="fill:white;fill-rule:nonzero;"/>
        <path d="M1012.66,1588.96L1024.66,1588.96C1024.66,1586.79 1024.51,1584.47 1024.2,1582C1023.9,1579.53 1023.13,1577.22 1021.91,1575.08C1020.69,1572.94 1018.84,1571.18 1016.37,1569.79C1013.9,1568.4 1010.52,1567.71 1006.24,1567.71C1001.74,1567.71 998.159,1568.47 995.493,1570C992.826,1571.53 990.784,1573.65 989.368,1576.38C987.951,1579.1 987.034,1582.36 986.618,1586.17C986.201,1589.97 985.993,1594.12 985.993,1598.62C985.993,1603.18 986.201,1607.35 986.618,1611.12C987.034,1614.9 987.951,1618.15 989.368,1620.88C990.784,1623.6 992.826,1625.68 995.493,1627.12C998.159,1628.57 1001.74,1629.29 1006.24,1629.29C1010.19,1629.29 1013.4,1628.68 1015.87,1627.46C1018.34,1626.24 1020.26,1624.54 1021.62,1622.38C1022.98,1620.21 1023.91,1617.68 1024.41,1614.79C1024.91,1611.9 1025.16,1608.85 1025.16,1605.62L1013.16,1605.62C1013.16,1608.85 1012.97,1611.44 1012.58,1613.42C1012.19,1615.39 1011.66,1616.92 1010.99,1618C1010.33,1619.08 1009.53,1619.81 1008.62,1620.17C1007.7,1620.53 1006.72,1620.71 1005.66,1620.71C1004.38,1620.71 1003.26,1620.44 1002.28,1619.92C1001.31,1619.39 1000.51,1618.36 999.868,1616.83C999.229,1615.31 998.757,1613.15 998.451,1610.38C998.146,1607.6 997.993,1603.96 997.993,1599.46C997.993,1595.24 998.104,1591.67 998.326,1588.75C998.548,1585.83 998.937,1583.47 999.493,1581.67C1000.05,1579.86 1000.81,1578.56 1001.78,1577.75C1002.76,1576.94 1003.99,1576.54 1005.49,1576.54C1008.22,1576.54 1010.09,1577.53 1011.12,1579.5C1012.15,1581.47 1012.66,1584.62 1012.66,1588.96Z" style="fill:white;fill-rule:nonzero;"/>
        <rect x="1032.08" y="1568.88" width="11.5" height="59.5" style="fill:white;fill-rule:nonzero;"/>
        <path d="M1052.08,1568.21L1052.08,1578.04L1063.58,1578.04L1063.58,1568.21L1052.08,1568.21ZM1052.08,1583.54L1052.08,1628.38L1063.58,1628.38L1063.58,1583.54L1052.08,1583.54Z" style="fill:white;fill-rule:nonzero;"/>
        <path d="M1093.24,1599.71L1104.24,1599.71C1104.24,1594.38 1102.9,1590.15 1100.2,1587.04C1097.51,1583.93 1093.49,1582.38 1088.16,1582.38C1085.49,1582.38 1083.05,1582.74 1080.83,1583.46C1078.6,1584.18 1076.69,1585.44 1075.08,1587.25C1073.46,1589.06 1072.21,1591.47 1071.33,1594.5C1070.44,1597.53 1069.99,1601.35 1069.99,1605.96C1069.99,1610.46 1070.35,1614.22 1071.08,1617.25C1071.8,1620.28 1072.87,1622.69 1074.28,1624.5C1075.7,1626.31 1077.48,1627.56 1079.62,1628.25C1081.76,1628.94 1084.27,1629.29 1087.16,1629.29C1093.27,1629.29 1097.65,1627.75 1100.28,1624.67C1102.92,1621.58 1104.24,1617.1 1104.24,1611.21L1093.24,1611.21C1093.24,1614.88 1092.8,1617.54 1091.91,1619.21C1091.02,1620.88 1089.6,1621.71 1087.66,1621.71C1086.38,1621.71 1085.34,1621.42 1084.53,1620.83C1083.73,1620.25 1083.1,1619.32 1082.66,1618.04C1082.21,1616.76 1081.91,1615.14 1081.74,1613.17C1081.58,1611.19 1081.49,1608.82 1081.49,1606.04C1081.49,1603.43 1081.58,1601.17 1081.74,1599.25C1081.91,1597.33 1082.21,1595.75 1082.66,1594.5C1083.1,1593.25 1083.77,1592.31 1084.66,1591.67C1085.55,1591.03 1086.69,1590.71 1088.08,1590.71C1089.19,1590.71 1090.08,1590.97 1090.74,1591.5C1091.41,1592.03 1091.92,1592.72 1092.28,1593.58C1092.65,1594.44 1092.9,1595.4 1093.03,1596.46C1093.17,1597.51 1093.24,1598.6 1093.24,1599.71Z" style="fill:white;fill-rule:nonzero;"/>
        <path d="M1122.16,1568.88L1110.66,1568.88L1110.66,1628.38L1122.16,1628.38L1122.16,1615.29L1126.24,1609.96L1135.83,1628.38L1148.49,1628.38L1133.66,1601.21L1146.58,1583.54L1133.91,1583.54L1122.33,1600.29L1122.16,1600.29L1122.16,1568.88Z" style="fill:white;fill-rule:nonzero;"/>
        <path d="M1174.41,1570.71L1174.41,1583.54L1168.58,1583.54L1168.58,1591.38L1174.41,1591.38L1174.41,1617.04C1174.41,1619.32 1174.55,1621.21 1174.83,1622.71C1175.1,1624.21 1175.62,1625.42 1176.37,1626.33C1177.12,1627.25 1178.2,1627.86 1179.62,1628.17C1181.03,1628.47 1182.85,1628.62 1185.08,1628.62C1186.41,1628.62 1187.67,1628.58 1188.87,1628.5C1190.06,1628.42 1191.3,1628.38 1192.58,1628.38L1192.58,1620.38C1192.19,1620.43 1191.77,1620.47 1191.33,1620.5C1190.88,1620.53 1190.44,1620.54 1189.99,1620.54C1188.33,1620.54 1187.23,1620.17 1186.7,1619.42C1186.17,1618.67 1185.91,1617.4 1185.91,1615.62L1185.91,1591.38L1192.58,1591.38L1192.58,1583.54L1185.91,1583.54L1185.91,1570.71L1174.41,1570.71Z" style="fill:white;fill-rule:nonzero;"/>
        <path d="M1206.58,1605.96C1206.58,1603.68 1206.63,1601.57 1206.74,1599.62C1206.85,1597.68 1207.12,1596.01 1207.53,1594.62C1207.95,1593.24 1208.58,1592.15 1209.41,1591.38C1210.24,1590.6 1211.35,1590.21 1212.74,1590.21C1215.08,1590.21 1216.69,1591.43 1217.58,1593.88C1218.46,1596.32 1218.91,1600.35 1218.91,1605.96C1218.91,1611.57 1218.46,1615.6 1217.58,1618.04C1216.69,1620.49 1215.08,1621.71 1212.74,1621.71C1211.35,1621.71 1210.24,1621.32 1209.41,1620.54C1208.58,1619.76 1207.95,1618.68 1207.53,1617.29C1207.12,1615.9 1206.85,1614.24 1206.74,1612.29C1206.63,1610.35 1206.58,1608.24 1206.58,1605.96ZM1195.08,1605.96C1195.08,1609.85 1195.35,1613.28 1195.91,1616.25C1196.46,1619.22 1197.41,1621.69 1198.74,1623.67C1200.08,1625.64 1201.88,1627.08 1204.16,1628C1206.44,1628.92 1209.3,1629.35 1212.74,1629.29C1216.02,1629.29 1218.78,1628.82 1221.03,1627.88C1223.28,1626.93 1225.1,1625.47 1226.49,1623.5C1227.88,1621.53 1228.88,1619.07 1229.49,1616.12C1230.1,1613.18 1230.41,1609.79 1230.41,1605.96C1230.41,1602.01 1230.13,1598.57 1229.58,1595.62C1229.02,1592.68 1228.08,1590.21 1226.74,1588.21C1225.41,1586.21 1223.6,1584.72 1221.33,1583.75C1219.05,1582.78 1216.19,1582.32 1212.74,1582.38C1209.46,1582.38 1206.7,1582.89 1204.45,1583.92C1202.2,1584.94 1200.38,1586.44 1198.99,1588.42C1197.6,1590.39 1196.6,1592.85 1195.99,1595.79C1195.38,1598.74 1195.08,1602.12 1195.08,1605.96Z" style="fill:white;fill-rule:nonzero;"/>
        <path d="M1290.16,1568.88L1256.91,1568.88L1256.91,1628.38L1290.99,1628.38L1290.99,1618.54L1268.91,1618.54L1268.91,1602.54L1288.91,1602.54L1288.91,1592.71L1268.91,1592.71L1268.91,1578.71L1290.16,1578.71L1290.16,1568.88Z" style="fill:white;fill-rule:nonzero;"/>
        <path d="M1296.66,1583.54L1296.66,1628.38L1308.16,1628.38L1308.16,1598.88C1308.16,1596.21 1308.7,1594.26 1309.78,1593.04C1310.87,1591.82 1312.33,1591.21 1314.16,1591.21C1315.77,1591.21 1316.92,1591.71 1317.62,1592.71C1318.31,1593.71 1318.66,1595.15 1318.66,1597.04L1318.66,1628.38L1330.16,1628.38L1330.16,1598.88C1330.16,1596.21 1330.7,1594.26 1331.78,1593.04C1332.87,1591.82 1334.33,1591.21 1336.16,1591.21C1337.77,1591.21 1338.92,1591.71 1339.62,1592.71C1340.31,1593.71 1340.66,1595.15 1340.66,1597.04L1340.66,1628.38L1352.16,1628.38L1352.16,1595.79C1352.16,1591.46 1351.26,1588.14 1349.45,1585.83C1347.65,1583.53 1344.83,1582.38 1340.99,1582.38C1338.27,1582.38 1335.92,1582.97 1333.95,1584.17C1331.98,1585.36 1330.55,1587.15 1329.66,1589.54L1329.49,1589.54C1328.88,1587.21 1327.67,1585.43 1325.87,1584.21C1324.06,1582.99 1321.83,1582.38 1319.16,1582.38C1316.66,1582.38 1314.51,1582.82 1312.7,1583.71C1310.9,1584.6 1309.27,1586.07 1307.83,1588.12L1307.66,1588.12L1307.66,1583.54L1296.66,1583.54Z" style="fill:white;fill-rule:nonzero;"/>
        <path d="M1380.74,1605.96L1380.74,1614.79C1380.74,1616.01 1380.52,1617.07 1380.08,1617.96C1379.63,1618.85 1379.06,1619.57 1378.37,1620.12C1377.67,1620.68 1376.91,1621.08 1376.08,1621.33C1375.24,1621.58 1374.44,1621.71 1373.66,1621.71C1372.1,1621.71 1370.99,1621.1 1370.33,1619.88C1369.66,1618.65 1369.33,1617.18 1369.33,1615.46C1369.33,1613.46 1369.83,1611.88 1370.83,1610.71C1371.83,1609.54 1373.49,1608.71 1375.83,1608.21C1376.55,1608.04 1377.35,1607.78 1378.24,1607.42C1379.13,1607.06 1379.96,1606.57 1380.74,1605.96ZM1359.74,1597.29L1370.08,1597.29L1370.08,1596.04C1370.08,1594.26 1370.52,1592.85 1371.41,1591.79C1372.3,1590.74 1373.63,1590.21 1375.41,1590.21C1377.35,1590.21 1378.73,1590.69 1379.53,1591.67C1380.34,1592.64 1380.74,1593.99 1380.74,1595.71C1380.74,1597.21 1380.41,1598.35 1379.74,1599.12C1379.08,1599.9 1377.88,1600.51 1376.16,1600.96L1369.66,1602.71C1367.66,1603.26 1365.95,1603.9 1364.53,1604.62C1363.12,1605.35 1361.95,1606.25 1361.03,1607.33C1360.12,1608.42 1359.44,1609.72 1358.99,1611.25C1358.55,1612.78 1358.33,1614.6 1358.33,1616.71C1358.33,1618.21 1358.52,1619.72 1358.91,1621.25C1359.3,1622.78 1359.91,1624.15 1360.74,1625.38C1361.58,1626.6 1362.69,1627.56 1364.08,1628.25C1365.46,1628.94 1367.16,1629.29 1369.16,1629.29C1371.94,1629.29 1374.2,1628.94 1375.95,1628.25C1377.7,1627.56 1379.24,1626.04 1380.58,1623.71L1380.74,1623.71C1380.91,1624.49 1381.09,1625.28 1381.28,1626.08C1381.48,1626.89 1381.77,1627.65 1382.16,1628.38L1393.16,1628.38C1392.6,1627.04 1392.23,1625.79 1392.03,1624.62C1391.84,1623.46 1391.74,1621.82 1391.74,1619.71L1391.74,1596.12C1391.74,1594.12 1391.53,1592.28 1391.12,1590.58C1390.7,1588.89 1389.91,1587.43 1388.74,1586.21C1387.58,1584.99 1385.94,1584.04 1383.83,1583.38C1381.71,1582.71 1378.94,1582.38 1375.49,1582.38C1373.33,1582.38 1371.28,1582.61 1369.37,1583.08C1367.45,1583.56 1365.78,1584.33 1364.37,1585.42C1362.95,1586.5 1361.83,1587.92 1360.99,1589.67C1360.16,1591.42 1359.74,1593.6 1359.74,1596.21L1359.74,1597.29Z" style="fill:white;fill-rule:nonzero;"/>
        <path d="M1400.33,1568.21L1400.33,1578.04L1411.83,1578.04L1411.83,1568.21L1400.33,1568.21ZM1400.33,1583.54L1400.33,1628.38L1411.83,1628.38L1411.83,1583.54L1400.33,1583.54Z" style="fill:white;fill-rule:nonzero;"/>
        <rect x="1420.33" y="1568.88" width="11.5" height="59.5" style="fill:white;fill-rule:nonzero;"/>
    </g>
</svg>
