<?xml version="1.0" encoding="UTF-8" standalone="no"?><!DOCTYPE svg PUBLIC "-//W3C//DTD SVG 1.1//EN" "http://www.w3.org/Graphics/SVG/1.1/DTD/svg11.dtd"><svg width="100%" height="100%" viewBox="0 0 822 395" version="1.1" xmlns="http://www.w3.org/2000/svg" xmlns:xlink="http://www.w3.org/1999/xlink" xml:space="preserve" xmlns:serif="http://www.serif.com/" style="fill-rule:evenodd;clip-rule:evenodd;stroke-linejoin:round;stroke-miterlimit:1.41421;"><g><path d="M240.392,287.233c3.4,-0.928 6.097,-1.56 8.722,-2.4c4.169,-1.341 4.241,-1.4 4.263,-5.994c0.056,-11.469 0.028,-22.941 -0.007,-34.409c-0.003,-1.15 -0.284,-2.3 -0.468,-3.697c-1.441,-0.163 -2.604,-0.378 -3.769,-0.413c-7.897,-0.231 -8.766,0.578 -8.778,8.341c-0.019,10.262 0.022,20.525 0.037,30.787c0.003,2.372 0,4.744 0,7.785m61.178,-84.419c-0.153,1.119 -0.106,1.397 -0.215,1.494c-5.9,5.259 -6.272,12.503 -6.303,19.475c-0.182,41.993 -0.213,83.993 0.025,125.987c0.04,7.313 0.062,15.078 7.693,21.231l-52.531,0c5.4,-13.293 2.372,-26.887 3.103,-40.228c0.05,-0.922 -0.412,-1.875 -0.794,-3.487c-4.056,1.478 -7.775,2.834 -11.931,4.35c0,6.903 -0.059,13.712 0.035,20.522c0.031,2.203 0.253,4.453 0.768,6.587c0.969,4.022 2.219,7.978 3.425,12.222c-1.184,0.275 -2.915,1.019 -4.65,1.019c-8.89,0.009 -15.665,4.728 -22.225,9.84c-6.581,5.125 -13.553,9.45 -21.625,11.807c-0.768,0.225 -1.547,0.434 -2.337,0.553c-0.369,0.053 -0.769,-0.131 -1.71,-0.319c0.31,-1.069 0.435,-2.178 0.929,-3.087c4.159,-7.65 5.562,-15.863 5.553,-24.485c-0.057,-43.209 -0.06,-86.419 0.037,-129.625c0.013,-5.015 0.344,-10.103 1.253,-15.025c1.575,-8.562 6.313,-14.828 15.078,-17.14c3.866,-1.019 7.888,-1.972 11.847,-2.004c23.219,-0.193 46.438,-0.115 69.66,-0.096c1.565,0 3.134,0.256 4.915,0.409" style="fill:#231f20;fill-rule:nonzero;"/><path d="M492.976,370.786c-2.757,0.575 -4.9,1.379 -7.047,1.397c-5.778,0.053 -10.497,2.603 -15.016,5.744c-3.647,2.534 -7.3,5.069 -10.8,7.794c-5.547,4.315 -11.981,6.584 -18.615,8.44c-0.516,0.144 -1.141,-0.118 -1.947,-0.218c0,-0.625 -0.216,-1.307 0.031,-1.688c5.631,-8.647 7.028,-18.5 7.075,-28.378c0.228,-46.866 0.172,-93.731 0.028,-140.6c-0.022,-7.019 -0.366,-14.262 -7.703,-19.612c2.125,-0.644 3.144,-1.222 4.162,-1.222c21.01,-0.057 42.019,0.006 63.025,-0.107c3.307,-0.018 5.213,1.629 6.957,3.991c2.603,3.519 5.259,6.997 8.3,11.031c2.631,-4.406 4.915,-7.947 6.89,-11.653c1.31,-2.459 3.041,-3.372 5.807,-3.362c21.412,0.084 42.828,0.04 64.24,0.078c1.131,0 2.26,0.365 3.294,0.547c0,0.722 0.169,1.297 -0.025,1.475c-5.366,4.887 -5.459,11.297 -5.45,17.865c0.059,43.028 0.059,86.057 0,129.088c-0.009,6.934 -0.138,13.79 6.95,19.565l-55.1,0c0.753,-1.237 1.231,-2.209 1.878,-3.056c2.419,-3.153 3.613,-6.725 3.734,-10.669c0.069,-2.218 0.1,-4.443 0.1,-6.665c0.007,-32.119 0.01,-64.238 0,-96.36c-0.003,-3.231 -0.134,-6.462 -0.131,-9.693c0.003,-2.957 -1.74,-4.413 -4.319,-5.038c-2.509,-0.606 -5.378,0.906 -6.268,3.488c-0.65,1.872 -1.1,3.922 -1.107,5.893c-0.068,24.441 -0.109,48.885 0.016,73.329c0.028,4.906 1.603,9.506 4.759,13.443c0.997,1.244 1.841,2.613 3.157,4.497c-14.357,7.841 -21.469,21.278 -28.229,36.6c-6.015,-16.297 -14.99,-28.809 -29.256,-36.556c0.144,-0.847 0.069,-1.419 0.294,-1.584c5.737,-4.21 7.587,-10.079 7.569,-16.91c-0.06,-24.647 -0.007,-49.29 -0.057,-73.937c-0.012,-5.913 -1.684,-8.207 -5.653,-8.288c-4.278,-0.09 -6.05,2.241 -6.056,8.503c-0.031,36.16 0.078,72.322 -0.1,108.478c-0.025,5.175 2.234,9.3 4.613,14.35" style="fill:#231f20;fill-rule:nonzero;"/><path d="M662.897,240.782c-1.931,-0.215 -3.09,-0.428 -4.253,-0.462c-7.887,-0.228 -8.747,0.575 -8.759,8.359c-0.016,10.263 0.022,20.528 0.037,30.791c0.003,2.369 0,4.741 0,7.759c3.794,-1.031 6.863,-1.837 9.91,-2.706c1.928,-0.547 3.081,-1.716 3.078,-3.894c-0.025,-13.062 -0.013,-26.125 -0.013,-39.847m-61.344,153.594c2.019,-5.431 4.279,-9.822 5.219,-14.478c1.106,-5.478 1.447,-11.187 1.463,-16.797c0.112,-41.797 0.018,-83.59 0.112,-125.384c0.01,-5.219 0.356,-10.494 1.197,-15.638c1.453,-8.865 6.303,-15.228 15.291,-17.634c3.668,-0.981 7.49,-1.913 11.253,-1.941c23.419,-0.184 46.84,-0.115 70.262,-0.097c1.528,0.004 3.057,0.307 4.488,0.457c0,0.834 0.172,1.409 -0.022,1.587c-6.013,5.481 -6.222,12.919 -6.25,20.103c-0.156,41.591 -0.206,83.185 0.047,124.778c0.044,7.3 -0.194,15.16 7.24,21.119c-6.446,1.66 -11.981,0.731 -17.418,0.894c-5.85,0.175 -11.71,0.041 -17.566,0.041l-17.219,0c5.682,-14.594 2.335,-28.913 3.328,-43.366c-5.134,-0.222 -8.621,2.291 -12.684,3.775c0,7.094 -0.016,14.106 0.019,21.122c0.006,0.79 0.437,1.587 0.415,2.375c-0.159,5.525 0.807,10.74 4.935,15.397c-2.616,0.593 -4.36,1.34 -6.097,1.328c-8.697,-0.053 -15.319,4.587 -21.722,9.537c-6.597,5.1 -13.478,9.566 -21.556,11.922c-1.285,0.375 -2.641,0.51 -4.735,0.9" style="fill:#231f20;fill-rule:nonzero;"/><path d="M711.495,202.846c2.056,-0.197 3.434,-0.441 4.809,-0.441c21.819,-0.006 43.638,-0.1 65.453,0.1c8.453,0.078 16.353,2.231 22.678,8.434c5.603,5.5 8.3,12.275 9.103,19.935c0.125,1.2 0.085,2.422 0.094,3.631c0.319,38.362 0.631,76.725 0.947,115.084c0.003,0.407 0.013,0.81 0.003,1.213c-0.134,7.1 -0.344,14.219 6.813,20.181l-52.76,0c4.785,-9.019 3.416,-18.366 3.447,-27.525c0.106,-30.909 0.053,-61.816 0.035,-92.725c-0.007,-9.425 -0.566,-9.928 -9.997,-9.362c-0.766,0.046 -1.519,0.328 -2.682,0.59c-0.103,2.056 -0.284,4.022 -0.284,5.988c-0.019,32.928 -0.062,65.856 0.041,98.784c0.012,5.025 0.368,10.106 1.234,15.044c0.538,3.056 2.338,5.887 3.675,9.062c-1.744,0.407 -3.478,1.16 -5.212,1.153c-8.675,-0.021 -15.36,4.504 -21.757,9.485c-6.75,5.253 -13.837,9.772 -22.118,12.162c-1.11,0.319 -2.288,0.397 -4.229,0.722c0.619,-1.794 0.888,-3.065 1.469,-4.175c3.735,-7.134 5.225,-14.747 5.222,-22.753c-0.031,-49.087 0.028,-98.178 -0.062,-147.266c-0.01,-6.209 1.528,-5.984 -5.922,-17.321" style="fill:#231f20;fill-rule:nonzero;"/><path d="M61.681,331.038l0,-7.847c0,-24.225 0.007,-48.453 -0.003,-72.678c-0.003,-10.072 -0.603,-10.635 -10.578,-10.06c-0.744,0.044 -1.472,0.425 -2.25,0.663l0,91.8c4.316,0.362 8.247,0.909 12.831,-1.878m-60.815,39.672c5.862,-5.607 6.225,-12.144 6.215,-18.919c-0.072,-43.203 -0.059,-86.41 -0.015,-129.613c0.006,-6.743 0.065,-13.418 -7.066,-18.643c2.584,-0.585 3.816,-1.104 5.047,-1.107c23.219,-0.031 46.434,-0.112 69.65,0.11c4.159,0.04 8.4,1.053 12.44,2.187c9.925,2.781 14.979,9.888 15.941,19.828c0.697,7.207 0.991,14.478 1.016,21.722c0.109,29.678 0.106,59.356 -0.007,89.031c-0.021,5.832 -0.231,11.744 -1.234,17.463c-1.4,7.978 -6.866,13.131 -14.066,16.209c-3.081,1.319 -6.618,2.175 -9.956,2.2c-25.031,0.203 -50.065,0.15 -75.1,0.157c-0.578,0 -1.156,-0.244 -2.865,-0.625" style="fill:#231f20;fill-rule:nonzero;"/><path d="M364.979,330.998l0,-7.968c0,-24.025 0.007,-48.05 -0.003,-72.075c-0.003,-10.757 -1.003,-11.613 -11.922,-10.25c-0.325,0.04 -0.6,0.493 -0.846,0.709l0,91.491c4.387,0.384 8.34,0.928 12.771,-1.907m-60.668,-128.268c2.503,-0.141 4.281,-0.329 6.059,-0.332c21.806,-0.009 43.609,-0.134 65.413,0.116c4.965,0.059 10.021,1.022 14.849,2.284c8.935,2.338 13.847,8.766 15.516,17.563c0.859,4.528 1.219,9.212 1.234,13.828c0.101,33.512 0.107,67.025 0,100.537c-0.015,5.425 -0.221,10.947 -1.253,16.247c-1.54,7.928 -6.99,13.082 -14.234,16.085c-3.1,1.284 -6.631,2.103 -9.972,2.131c-24.831,0.2 -49.666,0.15 -74.497,0.156c-0.775,0 -1.547,-0.256 -2.184,-0.365c1.653,-3.738 3.815,-7.204 4.672,-10.963c0.837,-3.662 0.418,-7.631 0.418,-11.462c0.019,-40.985 0.116,-81.969 -0.043,-122.95c-0.057,-13.857 1.587,-10.585 -5.978,-22.875" style="fill:#231f20;fill-rule:nonzero;"/><path d="M107.862,202.804c2.244,-0.172 3.819,-0.4 5.397,-0.403c23.028,-0.022 46.056,-0.015 69.084,-0.012c0.807,0 1.616,0.04 2.422,0.012c2.741,-0.097 4.235,1.253 4.232,3.95c-0.01,13.528 -0.079,27.056 -0.16,40.585c-0.003,0.343 -0.372,0.684 -0.509,0.925c-5.288,-1.679 -10.438,-3.979 -15.816,-4.825c-5.281,-0.832 -10.794,-0.182 -16.603,-0.182l0,23.263c10.013,1.337 19.759,0.675 28.847,-4.685c1.256,4.388 1.516,42.669 0.428,49.197c-4.694,-1.422 -9.325,-3.393 -14.144,-4.122c-4.715,-0.712 -9.625,-0.156 -14.5,-0.156c-1.265,3.841 -1.559,15.572 -0.456,24.347c10.713,-0.391 22.006,3.284 31.731,-5.881c0.541,1.159 1.25,1.975 1.25,2.79c0.05,13.735 0.019,27.469 -0.034,41.204c0,0.553 -0.381,1.109 -0.559,1.596c-4.45,1.185 -72.282,1.513 -80.185,0.35c0.691,-1.081 1.225,-2.046 1.881,-2.918c2.391,-3.175 3.579,-6.738 3.604,-10.703c0.021,-3.838 0.081,-7.675 0.081,-11.513c0.006,-39.794 0.003,-79.587 0.003,-119.381c0,-0.2 0.003,-0.403 0,-0.606c-0.344,-14.975 1.194,-10.885 -5.994,-22.832" style="fill:#231f20;fill-rule:nonzero;"/><path d="M726.411,84.382c1.153,0 1.747,0.113 2.281,-0.018c1.947,-0.488 3.891,-1 5.806,-1.603c4.831,-1.519 4.885,-1.541 4.903,-6.732c0.041,-10.865 0.032,-21.731 -0.006,-32.597c-0.006,-1.556 -0.269,-3.109 -0.441,-4.965c-1.84,-0.16 -3.396,-0.397 -4.953,-0.41c-6.703,-0.059 -7.603,0.813 -7.625,7.675c-0.034,10.663 0.019,21.329 0.035,31.994c0.003,2.175 0,4.347 0,6.656m61.109,-83.875c-0.156,1.129 -0.066,1.688 -0.288,1.879c-5.946,5.031 -6.106,12.184 -6.143,18.9c-0.219,42.2 -0.222,84.4 0,126.596c0.037,7.138 0.35,14.625 6.584,20.097c-4.581,1.372 -41.956,1.75 -50.784,0.65c-0.147,-0.337 -0.516,-0.778 -0.41,-0.99c2.65,-5.419 3.066,-11.185 2.95,-17.094c-0.125,-6.459 0.007,-12.922 -0.031,-19.384c-0.009,-1.763 -0.228,-3.525 -0.369,-5.541c-4.787,0.125 -8.359,2.362 -12.278,3.956c-0.937,10.278 -0.256,20.319 1.016,30.291c0.362,2.847 2.3,5.49 3.712,8.665c-2.087,0.472 -4.165,1.363 -6.231,1.338c-6.69,-0.088 -11.975,3.162 -17.175,6.694c-4.831,3.284 -9.425,6.962 -14.453,9.9c-3.788,2.212 -8.078,3.578 -12.194,5.203c-0.834,0.331 -1.878,0.131 -3.465,0.209c0.809,-1.981 1.293,-3.437 1.978,-4.79c3.35,-6.613 4.8,-13.638 4.8,-21.013c0.009,-43.206 -0.013,-86.416 0.09,-129.622c0.013,-5.422 0.363,-10.89 1.154,-16.247c1.353,-9.156 6.3,-15.65 15.537,-18.093c3.669,-0.972 7.5,-1.85 11.263,-1.879c23.421,-0.178 46.843,-0.109 70.265,-0.096c1.378,0.003 2.76,0.225 4.472,0.371" style="fill:#231f20;fill-rule:nonzero;"/><path d="M168.653,84.531c0,7.068 -0.012,14.137 0.004,21.206c0.015,6.865 -0.057,13.737 0.137,20.597c0.116,4 1.528,5.459 4.756,5.8c3.766,0.397 6.413,-1.182 7.21,-4.71c0.572,-2.534 0.937,-5.172 0.943,-7.765c0.072,-23.425 0.057,-46.853 0.016,-70.282c-0.003,-2 -0.181,-4.037 -0.584,-5.993c-1.028,-4.994 -5.172,-7.157 -9.853,-5.016c-1.054,0.484 -2.022,1.978 -2.288,3.172c-0.434,1.941 -0.325,4.012 -0.328,6.031c-0.022,12.319 -0.009,24.641 -0.013,36.96m54.697,0.831c0,17.981 0.035,35.962 -0.037,53.944c-0.013,2.803 -0.335,5.634 -0.813,8.4c-2.178,12.593 -10.543,20.687 -23.412,21.134c-16.144,0.562 -32.331,0.509 -48.478,0.025c-11.86,-0.359 -22.66,-8.581 -23.522,-21.697c-0.21,-3.209 -0.831,-6.406 -0.838,-9.612c-0.062,-34.75 -0.09,-69.5 0.013,-104.25c0.015,-4.816 0.275,-9.747 1.328,-14.422c2.169,-9.65 8.812,-15.191 18.25,-17.263c4.106,-0.903 8.381,-1.35 12.587,-1.419c11.31,-0.187 22.632,-0.278 33.938,0.05c4.778,0.141 9.666,0.944 14.25,2.3c8.887,2.629 14.437,8.629 15.669,18.063c0.518,3.984 1.025,8.006 1.05,12.016c0.112,17.578 0.05,35.153 0.05,52.731c-0.013,0 -0.025,0 -0.035,0" style="fill:#231f20;fill-rule:nonzero;"/><path d="M317.683,0.883c5.944,-1.275 46.622,-1.047 51.331,0.459c-6.756,5.703 -6.481,13.6 -6.781,21.138c-0.353,8.871 -0.19,17.768 -0.034,26.65c0.069,3.978 -0.76,7.396 -3.047,10.781c-4.844,7.172 -9.272,14.625 -14.025,22.206c4.2,6.363 8.094,12.731 12.469,18.747c3.362,4.625 4.89,9.394 4.656,15.169c-0.381,9.475 -0.222,18.981 -0.053,28.468c0.084,4.619 0.184,9.35 1.237,13.807c0.841,3.556 3.135,6.768 4.935,10.44l-50.707,0c5.213,-15.384 2.088,-30.975 2.838,-46.34c0.056,-1.125 -0.409,-2.407 -0.991,-3.413c-3.712,-6.434 -7.525,-12.809 -11.978,-20.34l0,16.756c0,8.684 0.106,17.369 -0.028,26.05c-0.144,9.112 0.041,18.144 4.125,26.59c-4.481,1.288 -43.281,1.604 -51.241,0.444c0.688,-1.078 1.216,-2.047 1.872,-2.915c2.394,-3.172 3.582,-6.732 3.61,-10.697c0.025,-3.432 0.081,-6.863 0.081,-10.297c0.006,-39.781 0.003,-79.563 0.003,-119.344c0,-0.806 0,-1.616 0,-2.422c-0.009,-12.265 -0.009,-12.265 -5.797,-21.872c5.594,-1.653 11.178,-0.603 16.65,-0.784c5.85,-0.194 11.71,-0.044 17.566,-0.044l17.631,0c-5.594,11.206 -4.387,22.372 -4.456,33.381c-0.072,10.694 -0.016,21.388 -0.016,33.238c1.331,-1.781 2.16,-2.691 2.763,-3.728c2.737,-4.706 5.575,-9.372 8.04,-14.219c1.144,-2.253 2.091,-4.881 2.15,-7.359c0.222,-9.285 0.303,-18.588 -0.109,-27.86c-0.184,-4.097 -1.684,-8.137 -2.694,-12.69" style="fill:#231f20;fill-rule:nonzero;"/><path d="M434.266,0.128c18.737,-0.007 36.537,-0.028 54.14,0.018c0.235,1.16 0.378,1.466 0.3,1.541c-6.312,6.069 -6.381,14.131 -6.425,21.888c-0.197,34.125 -0.087,68.25 -0.075,102.378c0,1.393 0.147,2.787 0.238,4.362c3.122,1.656 6.387,1.072 9.456,0.578c1.153,-0.184 2.466,-1.853 2.937,-3.131c0.535,-1.431 0.238,-3.184 0.241,-4.8c0.013,-15.347 -0.003,-30.694 0.019,-46.041c0.006,-6.006 0.053,-5.965 5.809,-8.09c9.838,-3.631 19.65,-7.328 29.485,-10.966c1.681,-0.622 3.421,-1.078 5.196,-1.631c1.816,2.331 1.11,4.831 1.116,7.134c0.053,27.06 -0.019,54.116 0.084,81.175c0.019,4.616 0.188,9.35 1.244,13.803c0.844,3.557 3.141,6.766 4.938,10.422l-108.182,0c0.879,-1.362 1.416,-2.328 2.075,-3.203c2.385,-3.175 3.575,-6.734 3.597,-10.697c0.022,-3.837 0.082,-7.675 0.082,-11.509c0.006,-38.569 0.003,-77.138 0.003,-115.706c0,-1.616 0,-3.228 0,-4.844c-0.01,-12.213 -0.01,-12.213 -6.278,-22.681" style="fill:#231f20;fill-rule:nonzero;"/><path d="M548.721,0.882c7.091,-1.297 49.694,-1.009 53.856,0.272c0.031,0.197 0.166,0.5 0.081,0.575c-6.203,5.869 -6.353,13.737 -6.4,21.284c-0.212,34.532 -0.096,69.06 -0.084,103.591c0.003,1.187 0.156,2.378 0.25,3.766c3.159,1.55 6.416,1.043 9.488,0.515c1.15,-0.197 2.434,-1.884 2.903,-3.165c0.525,-1.438 0.231,-3.188 0.231,-4.804c0.009,-15.346 -0.003,-30.693 0.019,-46.037c0.006,-5.963 0.056,-5.925 5.85,-8.063c9.837,-3.631 19.65,-7.331 29.487,-10.968c1.675,-0.619 3.416,-1.066 6.025,-1.869c0.103,2.809 0.266,5.122 0.266,7.434c0.019,27.06 -0.041,54.116 0.062,81.175c0.019,4.616 0.191,9.35 1.25,13.803c0.847,3.554 3.15,6.76 4.947,10.4l-108.284,0c1.081,-1.575 1.815,-2.659 2.565,-3.737c2.529,-3.628 3.26,-7.7 3.254,-12.05c-0.032,-23.625 0.015,-47.25 0.025,-70.875c0.006,-19.588 0.125,-39.175 -0.041,-58.759c-0.128,-15.16 1.172,-10.944 -5.75,-22.488" style="fill:#231f20;fill-rule:nonzero;"/><path d="M48.162,168.888c7.478,-6.397 7.631,-13.778 7.61,-21.362c-0.094,-34.135 -0.041,-68.269 -0.041,-102.403l0,-6.325c-11.363,-2.36 -15.772,0.39 -20.863,12.39c-1.315,-4.134 -1.584,-43.618 -0.34,-50.068c4.428,-1.263 77.509,-1.494 83.787,-0.266c1.294,4.475 1.485,44.281 0.244,50.434c-5.362,-12.562 -8.075,-14.315 -20.606,-12.928c-0.175,1.413 -0.528,2.944 -0.528,4.472c-0.028,36.156 -0.019,72.309 -0.013,108.463c0,6.425 1.375,12.356 6.6,17.243c-18.412,0.494 -36.39,0.785 -55.85,0.35" style="fill:#231f20;fill-rule:nonzero;"/><path d="M428.405,168.348c-4.081,1.078 -48.134,1.156 -53.853,-0.159c5.66,-4.719 6.528,-10.932 6.519,-17.582c-0.059,-41.818 -0.028,-83.64 -0.025,-125.462c0,-14.031 0,-14.031 -6.303,-24.672l54.469,0c-0.707,1.256 -1.088,2.284 -1.754,3.069c-4.731,5.562 -4.396,12.456 -4.584,18.994c-0.356,12.315 -0.103,24.646 -0.103,36.968c0,26.872 -0.059,53.741 0.047,80.613c0.022,5.831 0.165,11.744 1.153,17.462c0.647,3.75 2.912,7.219 4.434,10.769" style="fill:#231f20;fill-rule:nonzero;"/></g></svg>