<?xml version="1.0" encoding="UTF-8" standalone="no"?><!DOCTYPE svg PUBLIC "-//W3C//DTD SVG 1.1//EN" "http://www.w3.org/Graphics/SVG/1.1/DTD/svg11.dtd"><svg width="100%" height="100%" viewBox="0 0 3425 1646" version="1.1" xmlns="http://www.w3.org/2000/svg" xmlns:xlink="http://www.w3.org/1999/xlink" xml:space="preserve" xmlns:serif="http://www.serif.com/" style="fill-rule:evenodd;clip-rule:evenodd;stroke-linejoin:round;stroke-miterlimit:1.41421;"><g><path d="M1001.63,1196.8c14.167,-3.867 25.405,-6.5 36.342,-10c17.371,-5.587 17.671,-5.833 17.763,-24.975c0.233,-47.787 0.116,-95.587 -0.03,-143.371c-0.012,-4.791 -1.183,-9.583 -1.95,-15.404c-6.004,-0.679 -10.85,-1.575 -15.704,-1.721c-32.904,-0.962 -36.525,2.409 -36.575,34.755c-0.079,42.758 0.092,85.52 0.154,128.279c0.013,9.883 0,19.766 0,32.437m254.909,-351.746c-0.638,4.663 -0.442,5.821 -0.896,6.225c-24.583,21.913 -26.133,52.096 -26.263,81.146c-0.758,174.971 -0.887,349.971 0.105,524.946c0.166,30.471 0.258,62.825 32.054,88.463l-218.88,0c22.5,-55.388 9.884,-112.03 12.93,-167.617c0.208,-3.842 -1.717,-7.813 -3.309,-14.529c-16.9,6.158 -32.396,11.808 -49.712,18.125c0,28.762 -0.246,57.133 0.146,85.508c0.129,9.179 1.054,18.554 3.2,27.446c4.037,16.758 9.245,33.242 14.27,50.925c-4.933,1.146 -12.145,4.246 -19.375,4.246c-37.041,0.037 -65.27,19.7 -92.604,41c-27.421,21.354 -56.471,39.375 -90.104,49.196c-3.2,0.937 -6.446,1.808 -9.737,2.304c-1.538,0.221 -3.205,-0.546 -7.125,-1.329c1.291,-4.455 1.812,-9.075 3.87,-12.863c17.33,-31.875 23.175,-66.096 23.138,-102.021c-0.238,-180.037 -0.25,-360.079 0.154,-540.104c0.054,-20.896 1.433,-42.096 5.221,-62.604c6.562,-35.675 26.304,-61.783 62.825,-71.417c16.108,-4.246 32.867,-8.216 49.362,-8.35c96.746,-0.804 193.492,-0.479 290.25,-0.4c6.521,0 13.059,1.067 20.48,1.704" style="fill:#fff;fill-rule:nonzero;"/><path d="M2054.07,1544.94c-11.488,2.396 -20.417,5.746 -29.363,5.821c-24.075,0.22 -43.737,10.845 -62.566,23.933c-15.196,10.558 -30.417,21.121 -45.001,32.475c-23.112,17.979 -49.92,27.433 -77.562,35.167c-2.15,0.6 -4.754,-0.492 -8.113,-0.909c0,-2.604 -0.9,-5.446 0.13,-7.033c23.462,-36.029 29.283,-77.083 29.479,-118.242c0.95,-195.275 0.716,-390.546 0.116,-585.833c-0.091,-29.246 -1.525,-59.425 -32.095,-81.717c8.854,-2.683 13.1,-5.091 17.341,-5.091c87.542,-0.238 175.08,0.025 262.604,-0.446c13.78,-0.075 21.721,6.787 28.988,16.629c10.846,14.662 21.913,29.154 34.583,45.962c10.963,-18.358 20.479,-33.112 28.709,-48.554c5.458,-10.246 12.671,-14.05 24.196,-14.008c89.216,0.35 178.45,0.167 267.666,0.325c4.713,0 9.417,1.521 13.725,2.279c0,3.008 0.704,5.404 -0.104,6.146c-22.358,20.362 -22.746,47.071 -22.708,74.437c0.245,179.284 0.245,358.571 0,537.867c-0.038,28.892 -0.575,57.458 28.958,81.521l-229.583,0c3.137,-5.154 5.129,-9.204 7.825,-12.733c10.079,-13.138 15.054,-28.021 15.558,-44.455c0.288,-9.241 0.417,-18.512 0.417,-27.77c0.029,-133.83 0.041,-267.659 0,-401.5c-0.013,-13.463 -0.559,-26.925 -0.546,-40.388c0.012,-12.321 -7.25,-18.387 -17.996,-20.992c-10.454,-2.525 -22.408,3.775 -26.117,14.534c-2.708,7.8 -4.583,16.341 -4.612,24.554c-0.283,101.837 -0.454,203.687 0.067,305.537c0.116,20.442 6.679,39.609 19.829,56.013c4.154,5.183 7.671,10.887 13.154,18.737c-59.821,32.671 -89.454,88.659 -117.621,152.5c-25.062,-67.904 -62.458,-120.037 -121.9,-152.316c0.6,-3.529 0.288,-5.913 1.225,-6.6c23.904,-17.542 31.613,-41.996 31.538,-70.459c-0.25,-102.695 -0.03,-205.375 -0.238,-308.07c-0.05,-24.638 -7.017,-34.196 -23.554,-34.534c-17.825,-0.375 -25.208,9.338 -25.233,35.429c-0.13,150.667 0.325,301.342 -0.417,451.992c-0.104,21.563 9.308,38.75 19.221,59.792" style="fill:#fff;fill-rule:nonzero;"/><path d="M2762.07,1003.26c-8.046,-0.895 -12.875,-1.783 -17.721,-1.925c-32.862,-0.95 -36.446,2.396 -36.496,34.83c-0.066,42.762 0.092,85.533 0.154,128.295c0.013,9.871 0,19.755 0,32.33c15.809,-4.296 28.596,-7.655 41.292,-11.275c8.033,-2.28 12.838,-7.15 12.825,-16.225c-0.104,-54.425 -0.054,-108.855 -0.054,-166.03m-255.6,639.975c8.412,-22.629 17.829,-40.925 21.746,-60.325c4.608,-22.825 6.029,-46.612 6.095,-69.987c0.467,-174.154 0.076,-348.292 0.467,-522.434c0.042,-21.745 1.484,-43.725 4.988,-65.158c6.054,-36.937 26.262,-63.45 63.712,-73.475c15.284,-4.087 31.209,-7.971 46.888,-8.087c97.579,-0.767 195.166,-0.48 292.758,-0.405c6.367,0.017 12.738,1.28 18.7,1.905c0,3.475 0.717,5.87 -0.092,6.612c-25.054,22.838 -25.925,53.829 -26.041,83.763c-0.65,173.295 -0.859,346.604 0.196,519.908c0.183,30.417 -0.809,63.167 30.166,87.996c-26.858,6.916 -49.921,3.046 -72.575,3.725c-24.375,0.729 -48.791,0.171 -73.191,0.171l-71.746,0c23.675,-60.809 9.729,-120.471 13.866,-180.692c-21.391,-0.925 -35.92,9.546 -52.85,15.729c0,29.558 -0.066,58.775 0.08,88.008c0.025,3.292 1.82,6.613 1.729,9.896c-0.663,23.021 3.362,44.75 20.562,64.154c-10.9,2.471 -18.166,5.584 -25.404,5.534c-36.237,-0.221 -63.829,19.112 -90.508,39.737c-27.488,21.25 -56.159,39.859 -89.817,49.675c-5.354,1.563 -11.004,2.125 -19.729,3.75" style="fill:#fff;fill-rule:nonzero;"/><path d="M2964.56,845.192c8.566,-0.821 14.308,-1.838 20.037,-1.838c90.912,-0.025 181.825,-0.416 272.721,0.417c35.221,0.325 68.137,9.296 94.492,35.141c23.345,22.917 34.583,51.146 37.929,83.063c0.52,5 0.354,10.092 0.391,15.129c1.329,159.842 2.629,319.688 3.946,479.517c0.013,1.696 0.054,3.375 0.013,5.054c-0.559,29.583 -1.434,59.246 28.387,84.087l-219.833,0c19.937,-37.579 14.233,-76.524 14.362,-114.687c0.442,-128.788 0.221,-257.567 0.146,-386.354c-0.029,-39.271 -2.358,-41.367 -41.654,-39.009c-3.192,0.192 -6.329,1.367 -11.175,2.459c-0.429,8.567 -1.183,16.758 -1.183,24.95c-0.08,137.2 -0.259,274.4 0.171,411.6c0.05,20.937 1.533,42.108 5.141,62.683c2.242,12.734 9.742,24.529 15.313,37.759c-7.267,1.695 -14.492,4.833 -21.717,4.804c-36.146,-0.088 -64,18.766 -90.654,39.521c-28.125,21.887 -57.654,40.716 -92.158,50.675c-4.626,1.329 -9.534,1.654 -17.621,3.008c2.579,-7.475 3.7,-12.771 6.121,-17.396c15.562,-29.725 21.77,-61.446 21.758,-94.804c-0.129,-204.529 0.117,-409.075 -0.258,-613.608c-0.042,-25.871 6.366,-24.934 -24.675,-72.171" style="fill:#fff;fill-rule:nonzero;"/><path d="M257.004,1379.33l0,-32.696c0,-100.937 0.029,-201.887 -0.012,-302.825c-0.013,-41.966 -2.513,-44.312 -44.075,-41.916c-3.1,0.183 -6.134,1.77 -9.375,2.762l0,382.5c17.983,1.508 34.362,3.788 53.462,-7.825m-253.396,165.3c24.425,-23.362 25.938,-50.6 25.896,-78.829c-0.3,-180.013 -0.246,-360.042 -0.062,-540.054c0.025,-28.096 0.27,-55.909 -29.442,-77.679c10.767,-2.438 15.9,-4.6 21.029,-4.613c96.746,-0.129 193.475,-0.467 290.209,0.458c17.329,0.167 35,4.388 51.833,9.113c41.354,11.587 62.412,41.2 66.421,82.617c2.904,30.029 4.129,60.325 4.233,90.508c0.454,123.658 0.442,247.317 -0.029,370.962c-0.088,24.3 -0.963,48.934 -5.142,72.763c-5.833,33.242 -28.608,54.712 -58.608,67.537c-12.838,5.496 -27.575,9.063 -41.483,9.167c-104.296,0.846 -208.605,0.625 -312.917,0.654c-2.408,0 -4.817,-1.016 -11.938,-2.604" style="fill:#fff;fill-rule:nonzero;"/><path d="M1520.75,1379.16l0,-33.2c0,-100.104 0.029,-200.208 -0.013,-300.312c-0.012,-44.821 -4.179,-48.388 -49.675,-42.709c-1.354,0.167 -2.5,2.055 -3.525,2.955l0,381.212c18.279,1.6 34.75,3.867 53.213,-7.946m-252.784,-534.45c10.43,-0.587 17.838,-1.371 25.246,-1.383c90.859,-0.038 181.705,-0.558 272.555,0.483c20.687,0.246 41.754,4.259 61.87,9.517c37.229,9.742 57.696,36.525 64.65,73.179c3.579,18.867 5.079,38.383 5.142,57.617c0.421,139.633 0.446,279.271 0,418.904c-0.063,22.604 -0.921,45.612 -5.221,67.696c-6.417,33.033 -29.125,54.508 -59.308,67.021c-12.917,5.35 -27.629,8.762 -41.55,8.879c-103.463,0.833 -206.942,0.625 -310.404,0.65c-3.23,0 -6.446,-1.067 -9.1,-1.521c6.887,-15.575 15.895,-30.017 19.466,-45.679c3.488,-15.258 1.742,-31.796 1.742,-47.758c0.079,-170.771 0.483,-341.538 -0.179,-512.292c-0.238,-57.738 6.612,-44.104 -24.909,-95.313" style="fill:#fff;fill-rule:nonzero;"/><path d="M449.425,845.017c9.35,-0.717 15.913,-1.667 22.488,-1.679c95.95,-0.092 191.899,-0.063 287.85,-0.05c3.362,0 6.733,0.166 10.091,0.049c11.421,-0.404 17.646,5.221 17.634,16.459c-0.042,56.366 -0.33,112.733 -0.667,169.104c-0.013,1.429 -1.55,2.85 -2.121,3.854c-22.033,-6.996 -43.492,-16.579 -65.9,-20.104c-22.004,-3.467 -44.975,-0.758 -69.179,-0.758l0,96.929c41.721,5.571 82.329,2.812 120.196,-19.521c5.233,18.283 6.316,177.787 1.783,204.987c-19.558,-5.925 -38.854,-14.137 -58.933,-17.175c-19.646,-2.966 -40.105,-0.65 -60.417,-0.65c-5.271,16.005 -6.496,64.884 -1.9,101.446c44.638,-1.629 91.692,13.684 132.212,-24.504c2.255,4.829 5.209,8.229 5.209,11.625c0.208,57.229 0.079,114.454 -0.142,171.684c0,2.304 -1.587,4.62 -2.329,6.649c-18.542,4.938 -301.175,6.305 -334.104,1.459c2.879,-4.504 5.104,-8.525 7.837,-12.158c9.963,-13.23 14.913,-28.075 15.017,-44.596c0.088,-15.992 0.338,-31.979 0.338,-47.971c0.025,-165.808 0.012,-331.613 0.012,-497.421c0,-0.833 0.013,-1.679 0,-2.525c-1.433,-62.396 4.975,-45.354 -24.975,-95.133" style="fill:#fff;fill-rule:nonzero;"/><path d="M3026.71,351.592c4.804,0 7.279,0.471 9.504,-0.075c8.112,-2.034 16.212,-4.167 24.191,-6.679c20.13,-6.33 20.354,-6.421 20.43,-28.05c0.17,-45.271 0.133,-90.546 -0.025,-135.821c-0.025,-6.484 -1.121,-12.954 -1.838,-20.688c-7.667,-0.666 -14.15,-1.654 -20.637,-1.708c-27.93,-0.246 -31.68,3.387 -31.771,31.979c-0.142,44.429 0.079,88.871 0.146,133.308c0.012,9.063 0,18.113 0,27.734m254.62,-349.479c-0.65,4.704 -0.275,7.033 -1.2,7.829c-24.775,20.962 -25.441,50.766 -25.595,78.75c-0.913,175.833 -0.925,351.666 0,527.483c0.154,29.742 1.458,60.938 27.433,83.738c-19.088,5.716 -174.817,7.291 -211.6,2.708c-0.613,-1.404 -2.15,-3.242 -1.708,-4.125c11.041,-22.579 12.775,-46.604 12.291,-71.225c-0.521,-26.913 0.029,-53.842 -0.129,-80.767c-0.037,-7.346 -0.95,-14.687 -1.537,-23.087c-19.946,0.521 -34.83,9.841 -51.159,16.483c-3.904,42.825 -1.066,84.663 4.234,126.213c1.508,11.862 9.583,22.875 15.466,36.104c-8.696,1.966 -17.354,5.679 -25.962,5.575c-27.875,-0.367 -49.896,13.175 -71.563,27.891c-20.129,13.684 -39.271,29.009 -60.221,41.25c-15.783,9.217 -33.658,14.909 -50.808,21.68c-3.475,1.379 -7.825,0.545 -14.437,0.87c3.37,-8.254 5.387,-14.32 8.241,-19.958c13.959,-27.554 20,-56.825 20,-87.554c0.038,-180.025 -0.054,-360.067 0.375,-540.092c0.054,-22.591 1.513,-45.375 4.809,-67.696c5.637,-38.15 26.249,-65.208 64.737,-75.387c15.287,-4.05 31.25,-7.708 46.929,-7.829c97.588,-0.742 195.179,-0.454 292.771,-0.4c5.742,0.012 11.5,0.937 18.633,1.546" style="fill:#fff;fill-rule:nonzero;"/><path d="M702.721,352.213c0,29.45 -0.05,58.904 0.016,88.358c0.063,28.604 -0.237,57.237 0.571,85.821c0.484,16.666 6.367,22.745 19.817,24.166c15.692,1.654 26.721,-4.925 30.042,-19.625c2.383,-10.558 3.904,-21.55 3.929,-32.354c0.3,-97.604 0.237,-195.221 0.067,-292.842c-0.013,-8.333 -0.755,-16.82 -2.434,-24.97c-4.283,-20.809 -21.55,-29.821 -41.054,-20.9c-4.392,2.016 -8.425,8.241 -9.533,13.216c-1.809,8.088 -1.355,16.717 -1.367,25.129c-0.092,51.33 -0.038,102.671 -0.054,154m227.904,3.463c0,74.921 0.146,149.842 -0.154,224.767c-0.054,11.679 -1.396,23.475 -3.388,35c-9.075,52.471 -43.929,86.196 -97.55,88.058c-67.266,2.342 -134.712,2.121 -201.991,0.104c-49.417,-1.496 -94.417,-35.754 -98.009,-90.404c-0.875,-13.371 -3.462,-26.692 -3.491,-40.05c-0.259,-144.792 -0.375,-289.583 0.054,-434.375c0.062,-20.067 1.146,-40.613 5.533,-60.092c9.038,-40.208 36.717,-63.296 76.042,-71.929c17.108,-3.762 34.921,-5.625 52.446,-5.912c47.125,-0.78 94.3,-1.159 141.408,0.208c19.908,0.587 40.275,3.933 59.375,9.583c37.029,10.954 60.154,35.954 65.287,75.263c2.159,16.6 4.271,33.358 4.375,50.066c0.467,73.242 0.209,146.471 0.209,219.713c-0.054,0 -0.104,0 -0.146,0" style="fill:#fff;fill-rule:nonzero;"/><path d="M1323.68,3.679c24.767,-5.312 194.259,-4.362 213.879,1.913c-28.15,23.762 -27.004,56.666 -28.254,88.075c-1.471,36.962 -0.792,74.033 -0.141,111.041c0.287,16.575 -3.167,30.817 -12.696,44.921c-20.184,29.883 -38.634,60.938 -58.438,92.525c17.5,26.513 33.725,53.046 51.954,78.113c14.009,19.27 20.375,39.141 19.4,63.204c-1.587,39.479 -0.925,79.087 -0.22,118.616c0.35,19.246 0.766,38.959 5.154,57.53c3.504,14.816 13.062,28.2 20.562,43.5l-211.279,0c21.721,-64.1 8.7,-129.063 11.825,-193.084c0.233,-4.687 -1.704,-10.029 -4.129,-14.221c-15.467,-26.808 -31.354,-53.37 -49.908,-84.75l0,69.817c0,36.183 0.441,72.371 -0.117,108.542c-0.6,37.966 0.171,75.6 17.187,110.791c-18.67,5.367 -180.337,6.684 -213.504,1.85c2.867,-4.491 5.067,-8.529 7.8,-12.145c9.975,-13.217 14.925,-28.05 15.042,-44.571c0.104,-14.3 0.337,-28.596 0.337,-42.904c0.025,-165.755 0.013,-331.513 0.013,-497.267c0,-3.358 0,-6.733 0,-10.092c-0.038,-51.104 -0.038,-51.104 -24.154,-91.133c23.308,-6.888 46.575,-2.513 69.375,-3.267c24.375,-0.808 48.791,-0.183 73.191,-0.183l73.463,0c-23.308,46.692 -18.279,93.217 -18.567,139.087c-0.3,44.559 -0.067,89.117 -0.067,138.492c5.546,-7.421 9.001,-11.212 11.513,-15.533c11.404,-19.609 23.229,-39.05 33.5,-59.246c4.767,-9.388 8.713,-20.338 8.958,-30.663c0.925,-38.687 1.263,-77.45 -0.454,-116.083c-0.767,-17.071 -7.017,-33.904 -11.225,-52.875" style="fill:#fff;fill-rule:nonzero;"/><path d="M1809.44,0.533c78.071,-0.029 152.237,-0.116 225.583,0.075c0.979,4.834 1.575,6.109 1.25,6.421c-26.3,25.288 -26.587,58.879 -26.771,91.2c-0.821,142.188 -0.362,284.375 -0.312,426.575c0,5.804 0.612,11.613 0.991,18.175c13.009,6.9 26.613,4.467 39.4,2.409c4.805,-0.767 10.275,-7.721 12.238,-13.046c2.229,-5.963 0.992,-13.267 1.004,-20c0.054,-63.946 -0.012,-127.892 0.079,-191.838c0.025,-25.025 0.221,-24.854 24.204,-33.708c40.992,-15.129 81.875,-30.533 122.855,-45.692c7.004,-2.591 14.254,-4.491 21.65,-6.796c7.566,9.713 4.625,20.13 4.65,29.725c0.22,112.75 -0.08,225.484 0.349,338.23c0.08,19.233 0.784,38.958 5.184,57.512c3.516,14.821 13.087,28.192 20.575,43.425l-450.759,0c3.663,-5.675 5.9,-9.7 8.646,-13.346c9.938,-13.229 14.896,-28.058 14.988,-44.571c0.091,-15.987 0.341,-31.979 0.341,-47.954c0.025,-160.704 0.013,-321.408 0.013,-482.108c0,-6.733 0,-13.45 0,-20.183c-0.042,-50.888 -0.042,-50.888 -26.158,-94.505" style="fill:#fff;fill-rule:nonzero;"/><path d="M2286.34,3.675c29.545,-5.404 207.058,-4.204 224.399,1.133c0.13,0.821 0.692,2.084 0.338,2.396c-25.846,24.454 -26.471,57.238 -26.667,88.684c-0.883,143.883 -0.4,287.75 -0.35,431.629c0.013,4.945 0.65,9.908 1.042,15.691c13.163,6.459 26.733,4.346 39.533,2.146c4.792,-0.821 10.142,-7.85 12.096,-13.187c2.188,-5.992 0.963,-13.284 0.963,-20.017c0.037,-63.942 -0.013,-127.888 0.079,-191.821c0.025,-24.846 0.233,-24.687 24.375,-33.596c40.987,-15.129 81.875,-30.546 122.862,-45.7c6.979,-2.579 14.234,-4.441 25.104,-7.787c0.43,11.704 1.109,21.341 1.109,30.975c0.079,112.75 -0.171,225.483 0.258,338.229c0.079,19.233 0.796,38.958 5.208,57.512c3.53,14.809 13.125,28.167 20.613,43.334l-451.183,0c4.504,-6.563 7.562,-11.079 10.687,-15.571c10.538,-15.117 13.584,-32.083 13.559,-50.208c-0.134,-98.438 0.062,-196.875 0.104,-295.313c0.025,-81.617 0.521,-163.229 -0.171,-244.829c-0.534,-63.167 4.883,-45.6 -23.959,-93.7" style="fill:#fff;fill-rule:nonzero;"/><path d="M200.675,703.7c31.158,-26.654 31.796,-57.408 31.708,-89.008c-0.391,-142.229 -0.17,-284.454 -0.17,-426.679l0,-26.355c-47.346,-9.833 -65.717,1.625 -86.93,51.625c-5.479,-17.225 -6.6,-181.741 -1.416,-208.616c18.45,-5.263 322.954,-6.225 349.112,-1.109c5.392,18.646 6.188,184.505 1.017,210.142c-22.342,-52.342 -33.646,-59.646 -85.858,-53.867c-0.73,5.888 -2.201,12.267 -2.201,18.634c-0.116,150.65 -0.079,301.287 -0.054,451.929c0,26.771 5.729,51.483 27.5,71.846c-76.716,2.058 -151.625,3.27 -232.708,1.458" style="fill:#fff;fill-rule:nonzero;"/><path d="M1785.02,701.45c-17.004,4.492 -200.559,4.817 -224.388,-0.662c23.584,-19.663 27.2,-45.55 27.163,-73.259c-0.246,-174.241 -0.117,-348.5 -0.104,-522.758c0,-58.463 0,-58.463 -26.263,-102.8l226.954,0c-2.946,5.233 -4.533,9.517 -7.308,12.787c-19.713,23.175 -18.317,51.9 -19.1,79.142c-1.483,51.313 -0.429,102.692 -0.429,154.033c0,111.967 -0.246,223.921 0.196,335.888c0.091,24.296 0.687,48.933 4.804,72.758c2.696,15.625 12.133,30.079 18.475,44.871" style="fill:#fff;fill-rule:nonzero;"/></g></svg>