<?xml version="1.0" encoding="UTF-8" standalone="no"?>
<!DOCTYPE svg PUBLIC "-//W3C//DTD SVG 1.1//EN" "http://www.w3.org/Graphics/SVG/1.1/DTD/svg11.dtd">
<svg width="100%" height="100%" viewBox="0 0 1363 719" version="1.1" xmlns="http://www.w3.org/2000/svg" xmlns:xlink="http://www.w3.org/1999/xlink" xml:space="preserve" xmlns:serif="http://www.serif.com/" style="fill-rule:evenodd;clip-rule:evenodd;stroke-linejoin:round;stroke-miterlimit:1.41421;">
    <g transform="matrix(1.32825,0,0,1.51487,66.8996,36.9577)">
        <rect x="1.067" y="1.578" width="918.907" height="406.695" style="fill:rgb(249,249,249);"/>
    </g>
    <g transform="matrix(1,0,0,1,-3.54169,-10.5837)">
        <g transform="matrix(4.16667,0,0,4.16667,455.054,509.477)">
            <path d="M0,-7.066C1.088,-7.363 1.951,-7.565 2.791,-7.834C4.125,-8.263 4.148,-8.282 4.155,-9.752C4.173,-13.422 4.164,-17.093 4.153,-20.763C4.152,-21.131 4.062,-21.499 4.003,-21.946C3.542,-21.998 3.17,-22.067 2.797,-22.078C0.27,-22.152 -0.008,-21.893 -0.012,-19.409C-0.018,-16.125 -0.005,-12.841 0,-9.557C0.001,-8.798 0,-8.039 0,-7.066M19.577,-34.08C19.528,-33.722 19.543,-33.633 19.508,-33.602C17.62,-31.919 17.501,-29.601 17.491,-27.37C17.433,-13.932 17.423,-0.492 17.499,12.946C17.512,15.286 17.519,17.771 19.961,19.74L3.151,19.74C4.879,15.486 3.91,11.136 4.144,6.867C4.16,6.572 4.012,6.267 3.89,5.751C2.592,6.224 1.402,6.658 0.072,7.143C0.072,9.352 0.053,11.531 0.083,13.71C0.093,14.415 0.164,15.135 0.329,15.818C0.639,17.105 1.039,18.371 1.425,19.729C1.046,19.817 0.492,20.055 -0.063,20.055C-2.908,20.058 -5.076,21.568 -7.175,23.204C-9.281,24.844 -11.512,26.228 -14.095,26.982C-14.341,27.054 -14.59,27.121 -14.843,27.159C-14.961,27.176 -15.089,27.117 -15.39,27.057C-15.291,26.715 -15.251,26.36 -15.093,26.069C-13.762,23.621 -13.313,20.993 -13.316,18.234C-13.334,4.407 -13.335,-9.42 -13.304,-23.246C-13.3,-24.851 -13.194,-26.479 -12.903,-28.054C-12.399,-30.794 -10.883,-32.799 -8.078,-33.539C-6.841,-33.865 -5.554,-34.17 -4.287,-34.18C3.143,-34.242 10.573,-34.217 18.004,-34.211C18.505,-34.211 19.007,-34.129 19.577,-34.08" style="fill:rgb(35,31,32);fill-rule:nonzero;"/>
        </g>
        <g transform="matrix(4.16667,0,0,4.16667,791.832,398.174)">
            <path d="M0,46.384C-0.882,46.568 -1.568,46.825 -2.255,46.831C-4.104,46.848 -5.614,47.664 -7.06,48.669C-8.227,49.48 -9.396,50.291 -10.516,51.163C-12.291,52.544 -14.35,53.27 -16.473,53.864C-16.638,53.91 -16.838,53.826 -17.096,53.794C-17.096,53.594 -17.165,53.376 -17.086,53.254C-15.284,50.487 -14.837,47.334 -14.822,44.173C-14.749,29.176 -14.767,14.179 -14.813,-0.819C-14.82,-3.065 -14.93,-5.383 -17.278,-7.095C-16.598,-7.301 -16.272,-7.486 -15.946,-7.486C-9.223,-7.504 -2.5,-7.484 4.222,-7.52C5.28,-7.526 5.89,-6.999 6.448,-6.243C7.281,-5.117 8.131,-4.004 9.104,-2.713C9.946,-4.123 10.677,-5.256 11.309,-6.442C11.728,-7.229 12.282,-7.521 13.167,-7.518C20.019,-7.491 26.872,-7.505 33.724,-7.493C34.086,-7.493 34.447,-7.376 34.778,-7.318C34.778,-7.087 34.832,-6.903 34.77,-6.846C33.053,-5.282 33.023,-3.231 33.026,-1.129C33.045,12.64 33.045,26.409 33.026,40.179C33.023,42.398 32.982,44.592 35.25,46.44L17.618,46.44C17.859,46.044 18.012,45.733 18.219,45.462C18.993,44.453 19.375,43.31 19.414,42.048C19.436,41.338 19.446,40.626 19.446,39.915C19.448,29.637 19.449,19.359 19.446,9.08C19.445,8.046 19.403,7.012 19.404,5.978C19.405,5.032 18.847,4.566 18.022,4.366C17.219,4.172 16.301,4.656 16.016,5.482C15.808,6.081 15.664,6.737 15.662,7.368C15.64,15.189 15.627,23.011 15.667,30.833C15.676,32.403 16.18,33.875 17.19,35.135C17.509,35.533 17.779,35.971 18.2,36.574C13.606,39.083 11.33,43.383 9.167,48.286C7.242,43.071 4.37,39.067 -0.195,36.588C-0.149,36.317 -0.173,36.134 -0.101,36.081C1.735,34.734 2.327,32.856 2.321,30.67C2.302,22.783 2.319,14.897 2.303,7.01C2.299,5.118 1.764,4.384 0.494,4.358C-0.875,4.329 -1.442,5.075 -1.444,7.079C-1.454,18.65 -1.419,30.222 -1.476,41.792C-1.484,43.448 -0.761,44.768 0,46.384" style="fill:rgb(35,31,32);fill-rule:nonzero;"/>
        </g>
        <g transform="matrix(4.16667,0,0,4.16667,1018.39,571.61)">
            <path d="M0,-36.842C-0.618,-36.911 -0.989,-36.979 -1.361,-36.99C-3.885,-37.063 -4.16,-36.806 -4.164,-34.315C-4.169,-31.031 -4.157,-27.746 -4.152,-24.462C-4.151,-23.704 -4.152,-22.945 -4.152,-21.979C-2.938,-22.309 -1.956,-22.567 -0.981,-22.845C-0.364,-23.02 0.005,-23.394 0.004,-24.091C-0.004,-28.271 0,-32.451 0,-36.842M-19.63,12.308C-18.984,10.57 -18.261,9.165 -17.96,7.675C-17.606,5.922 -17.497,4.095 -17.492,2.3C-17.456,-11.075 -17.486,-24.449 -17.456,-37.823C-17.453,-39.493 -17.342,-41.181 -17.073,-42.827C-16.608,-45.664 -15.056,-47.7 -12.18,-48.47C-11.006,-48.784 -9.783,-49.082 -8.579,-49.091C-1.085,-49.15 6.41,-49.128 13.905,-49.122C14.394,-49.121 14.883,-49.024 15.341,-48.976C15.341,-48.709 15.396,-48.525 15.334,-48.468C13.41,-46.714 13.343,-44.334 13.334,-42.035C13.284,-28.726 13.268,-15.416 13.349,-2.106C13.363,0.23 13.287,2.745 15.666,4.652C13.603,5.183 11.832,4.886 10.092,4.938C8.22,4.994 6.345,4.951 4.471,4.951L-1.039,4.951C0.779,0.281 -0.292,-4.301 0.026,-8.926C-1.617,-8.997 -2.733,-8.193 -4.033,-7.718C-4.033,-5.448 -4.038,-3.204 -4.027,-0.959C-4.025,-0.706 -3.887,-0.451 -3.894,-0.199C-3.945,1.569 -3.636,3.238 -2.315,4.728C-3.152,4.918 -3.71,5.157 -4.266,5.153C-7.049,5.136 -9.168,6.621 -11.217,8.205C-13.328,9.837 -15.53,11.266 -18.115,12.02C-18.526,12.14 -18.96,12.183 -19.63,12.308" style="fill:rgb(35,31,32);fill-rule:nonzero;"/>
        </g>
        <g transform="matrix(4.16667,0,0,4.16667,1083.19,622.153)">
            <path d="M0,-61.112C0.658,-61.175 1.099,-61.253 1.539,-61.253C8.521,-61.255 15.503,-61.285 22.484,-61.221C25.189,-61.196 27.717,-60.507 29.741,-58.522C31.534,-56.762 32.397,-54.594 32.654,-52.143C32.694,-51.759 32.681,-51.368 32.684,-50.981C32.786,-38.705 32.886,-26.429 32.987,-14.154C32.988,-14.024 32.991,-13.895 32.988,-13.766C32.945,-11.494 32.878,-9.216 35.168,-7.308L18.285,-7.308C19.816,-10.194 19.378,-13.185 19.388,-16.116C19.422,-26.007 19.405,-35.897 19.399,-45.788C19.397,-48.804 19.218,-48.965 16.2,-48.784C15.955,-48.769 15.714,-48.679 15.342,-48.595C15.309,-47.937 15.251,-47.308 15.251,-46.679C15.245,-36.142 15.231,-25.605 15.264,-15.068C15.268,-13.46 15.382,-11.834 15.659,-10.254C15.831,-9.276 16.407,-8.37 16.835,-7.354C16.277,-7.224 15.722,-6.983 15.167,-6.985C12.391,-6.992 10.252,-5.544 8.205,-3.95C6.045,-2.269 3.777,-0.823 1.127,-0.058C0.772,0.044 0.395,0.069 -0.226,0.173C-0.028,-0.401 0.058,-0.808 0.244,-1.163C1.439,-3.446 1.916,-5.882 1.915,-8.444C1.905,-24.152 1.924,-39.861 1.895,-55.569C1.892,-57.556 2.384,-57.484 0,-61.112" style="fill:rgb(35,31,32);fill-rule:nonzero;"/>
        </g>
        <g transform="matrix(4.16667,0,0,4.16667,216.772,420.605)">
            <path d="M0,28.281L0,25.77C0,18.018 0.002,10.265 -0.001,2.513C-0.002,-0.71 -0.194,-0.89 -3.386,-0.706C-3.624,-0.692 -3.857,-0.57 -4.106,-0.494L-4.106,28.882C-2.725,28.998 -1.467,29.173 0,28.281M-19.461,40.976C-17.585,39.182 -17.469,37.09 -17.472,34.922C-17.495,21.097 -17.491,7.271 -17.477,-6.554C-17.475,-8.712 -17.456,-10.848 -19.738,-12.52C-18.911,-12.707 -18.517,-12.873 -18.123,-12.874C-10.693,-12.884 -3.264,-12.91 4.165,-12.839C5.496,-12.826 6.853,-12.502 8.146,-12.139C11.322,-11.249 12.939,-8.975 13.247,-5.794C13.47,-3.488 13.564,-1.161 13.572,1.157C13.607,10.654 13.606,20.151 13.57,29.647C13.563,31.513 13.496,33.405 13.175,35.235C12.727,37.788 10.978,39.437 8.674,40.422C7.688,40.844 6.556,41.118 5.488,41.126C-2.522,41.191 -10.533,41.174 -18.544,41.176C-18.729,41.176 -18.914,41.098 -19.461,40.976" style="fill:rgb(35,31,32);fill-rule:nonzero;"/>
        </g>
        <g transform="matrix(4.16667,0,0,4.16667,621.17,420.598)">
            <path d="M0,28.27L0,25.72C0,18.032 0.002,10.344 -0.001,2.656C-0.002,-0.786 -0.322,-1.06 -3.816,-0.624C-3.92,-0.611 -4.008,-0.466 -4.087,-0.397L-4.087,28.88C-2.683,29.003 -1.418,29.177 0,28.27M-19.414,-12.776C-18.613,-12.821 -18.044,-12.881 -17.475,-12.882C-10.497,-12.885 -3.52,-12.925 3.457,-12.845C5.046,-12.826 6.664,-12.518 8.209,-12.114C11.068,-11.366 12.64,-9.309 13.174,-6.494C13.449,-5.045 13.564,-3.546 13.569,-2.069C13.601,8.655 13.603,19.379 13.569,30.103C13.564,31.839 13.498,33.606 13.168,35.302C12.675,37.839 10.931,39.488 8.613,40.449C7.621,40.86 6.491,41.122 5.422,41.131C-2.524,41.195 -10.471,41.179 -18.417,41.181C-18.665,41.181 -18.912,41.099 -19.116,41.064C-18.587,39.868 -17.895,38.759 -17.621,37.556C-17.353,36.384 -17.487,35.114 -17.487,33.888C-17.481,20.773 -17.45,7.658 -17.501,-5.456C-17.519,-9.89 -16.993,-8.843 -19.414,-12.776" style="fill:rgb(35,31,32);fill-rule:nonzero;"/>
        </g>
        <g transform="matrix(4.16667,0,0,4.16667,278.347,592.285)">
            <path d="M0,-53.957C0.718,-54.012 1.222,-54.085 1.727,-54.086C9.096,-54.093 16.465,-54.091 23.834,-54.09C24.092,-54.09 24.351,-54.077 24.609,-54.086C25.486,-54.117 25.964,-53.685 25.963,-52.822C25.96,-48.493 25.938,-44.164 25.912,-39.835C25.911,-39.725 25.793,-39.616 25.749,-39.539C24.057,-40.076 22.409,-40.812 20.688,-41.083C18.998,-41.349 17.234,-41.141 15.375,-41.141L15.375,-33.697C18.579,-33.269 21.698,-33.481 24.606,-35.196C25.008,-33.792 25.091,-21.542 24.743,-19.453C23.241,-19.908 21.759,-20.539 20.217,-20.772C18.708,-21 17.137,-20.822 15.577,-20.822C15.172,-19.593 15.078,-15.839 15.431,-13.031C18.859,-13.156 22.473,-11.98 25.585,-14.913C25.758,-14.542 25.985,-14.281 25.985,-14.02C26.001,-9.625 25.991,-5.23 25.974,-0.835C25.974,-0.658 25.852,-0.48 25.795,-0.324C24.371,0.055 2.665,0.16 0.136,-0.212C0.357,-0.558 0.528,-0.867 0.738,-1.146C1.503,-2.162 1.883,-3.302 1.891,-4.571C1.898,-5.799 1.917,-7.027 1.917,-8.255C1.919,-20.989 1.918,-33.723 1.918,-46.457C1.918,-46.521 1.919,-46.586 1.918,-46.651C1.808,-51.443 2.3,-50.134 0,-53.957" style="fill:rgb(35,31,32);fill-rule:nonzero;"/>
        </g>
        <g transform="matrix(4.16667,0,0,4.16667,1103.08,240.618)">
            <path d="M0,-7.452C0.369,-7.452 0.559,-7.416 0.73,-7.458C1.353,-7.614 1.975,-7.778 2.588,-7.971C4.134,-8.457 4.151,-8.464 4.157,-10.125C4.17,-13.602 4.167,-17.079 4.155,-20.556C4.153,-21.054 4.069,-21.551 4.014,-22.145C3.425,-22.196 2.927,-22.272 2.429,-22.276C0.284,-22.295 -0.004,-22.016 -0.011,-19.82C-0.022,-16.408 -0.005,-12.995 0,-9.582C0.001,-8.886 0,-8.191 0,-7.452M19.555,-34.292C19.505,-33.931 19.534,-33.752 19.463,-33.691C17.56,-32.081 17.509,-29.792 17.497,-27.643C17.427,-14.139 17.426,-0.635 17.497,12.868C17.509,15.152 17.609,17.548 19.604,19.299C18.138,19.738 6.178,19.859 3.353,19.507C3.306,19.399 3.188,19.258 3.222,19.19C4.07,17.456 4.203,15.611 4.166,13.72C4.126,11.653 4.168,9.585 4.156,7.517C4.153,6.953 4.083,6.389 4.038,5.744C2.506,5.784 1.363,6.5 0.109,7.01C-0.191,10.299 0.027,13.512 0.434,16.703C0.55,17.614 1.17,18.46 1.622,19.476C0.954,19.627 0.289,19.912 -0.372,19.904C-2.513,19.876 -4.204,20.916 -5.868,22.046C-7.414,23.097 -8.884,24.274 -10.493,25.214C-11.705,25.922 -13.078,26.359 -14.395,26.879C-14.662,26.985 -14.996,26.921 -15.504,26.946C-15.245,26.312 -15.09,25.846 -14.871,25.413C-13.799,23.297 -13.335,21.049 -13.335,18.689C-13.332,4.863 -13.339,-8.964 -13.306,-22.79C-13.302,-24.525 -13.19,-26.275 -12.937,-27.989C-12.504,-30.919 -10.921,-32.997 -7.965,-33.779C-6.791,-34.09 -5.565,-34.371 -4.361,-34.38C3.134,-34.437 10.629,-34.415 18.124,-34.411C18.565,-34.41 19.007,-34.339 19.555,-34.292" style="fill:rgb(35,31,32);fill-rule:nonzero;"/>
        </g>
        <g transform="matrix(4.16667,0,0,4.16667,359.402,210.12)">
            <path d="M0,-0.085C0,2.177 -0.004,4.439 0.001,6.701C0.006,8.898 -0.017,11.097 0.045,13.292C0.082,14.572 0.534,15.039 1.567,15.148C2.772,15.275 3.619,14.77 3.874,13.641C4.057,12.83 4.174,11.986 4.176,11.156C4.199,3.66 4.194,-3.837 4.181,-11.334C4.18,-11.974 4.123,-12.626 3.994,-13.252C3.665,-14.85 2.339,-15.542 0.841,-14.857C0.504,-14.702 0.194,-14.224 0.109,-13.842C-0.03,-13.221 0.005,-12.558 0.004,-11.912C-0.003,-7.97 0.001,-4.027 0,-0.085M17.503,0.181C17.503,5.935 17.514,11.689 17.491,17.443C17.487,18.34 17.384,19.246 17.231,20.131C16.534,24.161 13.857,26.751 9.739,26.894C4.573,27.074 -0.607,27.057 -5.774,26.902C-9.569,26.787 -13.025,24.156 -13.301,19.959C-13.368,18.932 -13.567,17.909 -13.569,16.883C-13.589,5.763 -13.598,-5.357 -13.565,-16.477C-13.56,-18.018 -13.477,-19.596 -13.14,-21.092C-12.446,-24.18 -10.32,-25.953 -7.3,-26.616C-5.986,-26.905 -4.618,-27.048 -3.272,-27.07C0.347,-27.13 3.97,-27.159 7.588,-27.054C9.117,-27.009 10.681,-26.752 12.148,-26.318C14.992,-25.477 16.768,-23.557 17.162,-20.538C17.328,-19.263 17.49,-17.976 17.498,-16.693C17.534,-11.068 17.514,-5.444 17.514,0.181C17.51,0.181 17.506,0.181 17.503,0.181" style="fill:rgb(35,31,32);fill-rule:nonzero;"/>
        </g>
        <g transform="matrix(4.16667,0,0,4.16667,558.108,321.148)">
            <path d="M0,-53.499C1.902,-53.907 14.919,-53.834 16.426,-53.352C14.264,-51.527 14.352,-49 14.256,-46.588C14.143,-43.749 14.195,-40.902 14.245,-38.06C14.267,-36.787 14.002,-35.693 13.27,-34.61C11.72,-32.315 10.303,-29.93 8.782,-27.504C10.126,-25.468 11.372,-23.43 12.772,-21.505C13.848,-20.025 14.337,-18.499 14.262,-16.651C14.14,-13.619 14.191,-10.577 14.245,-7.541C14.272,-6.063 14.304,-4.549 14.641,-3.123C14.91,-1.985 15.644,-0.957 16.22,0.218L-0.006,0.218C1.662,-4.705 0.662,-9.694 0.902,-14.611C0.92,-14.971 0.771,-15.381 0.585,-15.703C-0.603,-17.762 -1.823,-19.802 -3.248,-22.212L-3.248,-16.85C-3.248,-14.071 -3.214,-11.292 -3.257,-8.514C-3.303,-5.598 -3.244,-2.708 -1.937,-0.005C-3.371,0.407 -15.787,0.508 -18.334,0.137C-18.114,-0.208 -17.945,-0.518 -17.735,-0.796C-16.969,-1.811 -16.589,-2.95 -16.58,-4.219C-16.572,-5.317 -16.554,-6.415 -16.554,-7.514C-16.552,-20.244 -16.553,-32.974 -16.553,-45.704C-16.553,-45.962 -16.553,-46.221 -16.553,-46.479C-16.556,-50.404 -16.556,-50.404 -18.408,-53.478C-16.618,-54.007 -14.831,-53.671 -13.08,-53.729C-11.208,-53.791 -9.333,-53.743 -7.459,-53.743L-1.817,-53.743C-3.607,-50.157 -3.221,-46.584 -3.243,-43.061C-3.266,-39.639 -3.248,-36.217 -3.248,-32.425C-2.822,-32.995 -2.557,-33.286 -2.364,-33.618C-1.488,-35.124 -0.58,-36.617 0.209,-38.168C0.575,-38.889 0.878,-39.73 0.897,-40.523C0.968,-43.494 0.994,-46.471 0.862,-49.438C0.803,-50.749 0.323,-52.042 0,-53.499" style="fill:rgb(35,31,32);fill-rule:nonzero;"/>
        </g>
        <g transform="matrix(4.16667,0,0,4.16667,713.552,322.046)">
            <path d="M0,-53.956C5.996,-53.958 11.692,-53.965 17.325,-53.95C17.4,-53.579 17.446,-53.481 17.421,-53.457C15.401,-51.515 15.379,-48.935 15.365,-46.453C15.302,-35.533 15.337,-24.613 15.341,-13.692C15.341,-13.246 15.388,-12.8 15.417,-12.296C16.416,-11.766 17.461,-11.953 18.443,-12.111C18.812,-12.17 19.232,-12.704 19.383,-13.113C19.554,-13.571 19.459,-14.132 19.46,-14.649C19.464,-19.56 19.459,-24.471 19.466,-29.382C19.468,-31.304 19.483,-31.291 21.325,-31.971C24.473,-33.133 27.613,-34.316 30.76,-35.48C31.298,-35.679 31.855,-35.825 32.423,-36.002C33.004,-35.256 32.778,-34.456 32.78,-33.719C32.797,-25.06 32.774,-16.402 32.807,-7.743C32.813,-6.266 32.867,-4.751 33.205,-3.326C33.475,-2.188 34.21,-1.161 34.785,0.009L0.167,0.009C0.448,-0.427 0.62,-0.736 0.831,-1.016C1.594,-2.032 1.975,-3.171 1.982,-4.439C1.989,-5.667 2.008,-6.895 2.008,-8.122C2.01,-20.464 2.009,-32.806 2.009,-45.148C2.009,-45.665 2.009,-46.181 2.009,-46.698C2.006,-50.606 2.006,-50.606 0,-53.956" style="fill:rgb(35,31,32);fill-rule:nonzero;"/>
        </g>
        <g transform="matrix(4.16667,0,0,4.16667,866.159,320.385)">
            <path d="M0,-53.316C2.269,-53.731 15.902,-53.639 17.234,-53.229C17.244,-53.166 17.287,-53.069 17.26,-53.045C15.275,-51.167 15.227,-48.649 15.212,-46.234C15.144,-35.184 15.181,-24.135 15.185,-13.085C15.186,-12.705 15.235,-12.324 15.265,-11.88C16.276,-11.384 17.318,-11.546 18.301,-11.715C18.669,-11.778 19.08,-12.318 19.23,-12.728C19.398,-13.188 19.304,-13.748 19.304,-14.265C19.307,-19.176 19.303,-24.087 19.31,-28.997C19.312,-30.905 19.328,-30.893 21.182,-31.577C24.33,-32.739 27.47,-33.923 30.618,-35.087C31.154,-35.285 31.711,-35.428 32.546,-35.685C32.579,-34.786 32.631,-34.046 32.631,-33.306C32.637,-24.647 32.618,-15.989 32.651,-7.33C32.657,-5.853 32.712,-4.338 33.051,-2.913C33.322,-1.776 34.059,-0.75 34.634,0.415L-0.017,0.415C0.329,-0.089 0.564,-0.436 0.804,-0.781C1.613,-1.942 1.847,-3.245 1.845,-4.637C1.835,-12.197 1.85,-19.757 1.853,-27.317C1.855,-33.585 1.893,-39.853 1.84,-46.12C1.799,-50.971 2.215,-49.622 0,-53.316" style="fill:rgb(35,31,32);fill-rule:nonzero;"/>
        </g>
        <g transform="matrix(4.16667,0,0,4.16667,198.747,97.1389)">
            <path d="M0,54.025C2.393,51.978 2.442,49.616 2.435,47.189C2.405,36.266 2.422,25.343 2.422,14.42L2.422,12.396C-1.214,11.641 -2.625,12.521 -4.254,16.361C-4.675,15.038 -4.761,2.403 -4.363,0.339C-2.946,-0.065 20.44,-0.139 22.449,0.254C22.863,1.686 22.924,14.424 22.527,16.393C20.811,12.373 19.943,11.812 15.933,12.256C15.877,12.708 15.764,13.198 15.764,13.687C15.755,25.257 15.758,36.826 15.76,48.395C15.76,50.451 16.2,52.349 17.872,53.913C11.98,54.071 6.227,54.164 0,54.025" style="fill:rgb(35,31,32);fill-rule:nonzero;"/>
        </g>
        <g transform="matrix(4.16667,0,0,4.16667,705.738,99.231)">
            <path d="M0,53.35C-1.306,53.695 -15.403,53.72 -17.233,53.299C-15.422,51.789 -15.144,49.801 -15.147,47.673C-15.166,34.291 -15.156,20.908 -15.155,7.525C-15.155,3.035 -15.155,3.035 -17.172,-0.37L0.258,-0.37C0.032,0.032 -0.09,0.361 -0.303,0.612C-1.817,2.392 -1.71,4.598 -1.77,6.69C-1.884,10.631 -1.803,14.577 -1.803,18.52C-1.803,27.119 -1.822,35.717 -1.788,44.316C-1.781,46.182 -1.735,48.074 -1.419,49.904C-1.212,51.104 -0.487,52.214 0,53.35" style="fill:rgb(35,31,32);fill-rule:nonzero;"/>
        </g>
    </g>
</svg>
