<?xml version="1.0" encoding="UTF-8" standalone="no"?>
<!DOCTYPE svg PUBLIC "-//W3C//DTD SVG 1.1//EN" "http://www.w3.org/Graphics/SVG/1.1/DTD/svg11.dtd">
<svg width="100%" height="100%" viewBox="0 0 150 42" version="1.1" xmlns="http://www.w3.org/2000/svg" xmlns:xlink="http://www.w3.org/1999/xlink" xml:space="preserve" xmlns:serif="http://www.serif.com/" style="fill-rule:evenodd;clip-rule:evenodd;stroke-linejoin:round;">
    <g transform="matrix(0.75,0,0,0.75,0,0)">
        <g id="path16" transform="matrix(1,0,0,1,-287.359,-181.875)">
            <path d="M299.197,183.633L288.109,183.633L299.917,235.041L313.237,235.041L325.045,183.633L314.317,183.633L306.685,221.649L306.469,221.649L299.197,183.633Z" style="fill-opacity:0;fill-rule:nonzero;stroke:white;stroke-width:2.67px;"/>
        </g>
        <g id="path18" transform="matrix(1,0,0,1,-287.359,-181.875)">
            <rect x="329.404" y="183.633" width="10.368" height="51.408" style="fill-opacity:0;fill-rule:nonzero;stroke:white;stroke-width:2.67px;"/>
        </g>
        <g id="path20" transform="matrix(1,0,0,1,-287.359,-181.875)">
            <path d="M356.75,209.337C356.75,205.881 356.822,202.953 356.966,200.553C357.158,198.153 357.494,196.185 357.974,194.649C358.502,193.113 359.222,192.009 360.134,191.337C361.094,190.617 362.342,190.257 363.878,190.257C365.414,190.257 366.638,190.617 367.55,191.337C368.51,192.009 369.23,193.113 369.71,194.649C370.238,196.185 370.574,198.153 370.718,200.553C370.91,202.953 371.006,205.881 371.006,209.337C371.006,212.793 370.91,215.745 370.718,218.193C370.574,220.593 370.238,222.561 369.71,224.097C369.23,225.585 368.51,226.689 367.55,227.409C366.638,228.081 365.414,228.417 363.878,228.417C362.342,228.417 361.094,228.081 360.134,227.409C359.222,226.689 358.502,225.585 357.974,224.097C357.494,222.561 357.158,220.593 356.966,218.193C356.822,215.745 356.75,212.793 356.75,209.337ZM346.382,209.337C346.382,213.273 346.55,216.873 346.886,220.137C347.27,223.401 348.062,226.209 349.262,228.561C350.51,230.913 352.286,232.713 354.59,233.961C356.894,235.209 359.99,235.833 363.878,235.833C367.766,235.833 370.862,235.209 373.166,233.961C375.47,232.713 377.222,230.913 378.422,228.561C379.67,226.209 380.462,223.401 380.798,220.137C381.182,216.873 381.374,213.273 381.374,209.337C381.374,205.449 381.182,201.873 380.798,198.609C380.462,195.297 379.67,192.465 378.422,190.113C377.222,187.761 375.47,185.937 373.166,184.641C370.862,183.297 367.766,182.625 363.878,182.625C359.99,182.625 356.894,183.297 354.59,184.641C352.286,185.937 350.51,187.761 349.262,190.113C348.062,192.465 347.27,195.297 346.886,198.609C346.55,201.873 346.382,205.449 346.382,209.337Z" style="fill-opacity:0;fill-rule:nonzero;stroke:white;stroke-width:2.67px;"/>
        </g>
        <g id="path22" transform="matrix(1,0,0,1,-287.359,-181.875)">
            <path d="M387.54,235.041L416.268,235.041L416.268,226.545L397.908,226.545L397.908,183.633L387.54,183.633L387.54,235.041Z" style="fill-opacity:0;fill-rule:nonzero;stroke:white;stroke-width:2.67px;"/>
        </g>
        <g id="path24" transform="matrix(1,0,0,1,-287.359,-181.875)">
            <path d="M449.596,183.633L420.868,183.633L420.868,235.041L450.316,235.041L450.316,226.545L431.236,226.545L431.236,212.721L448.516,212.721L448.516,204.225L431.236,204.225L431.236,192.129L449.596,192.129L449.596,183.633Z" style="fill-opacity:0;fill-rule:nonzero;stroke:white;stroke-width:2.67px;"/>
        </g>
        <g id="path26" transform="matrix(1,0,0,1,-287.359,-181.875)">
            <path d="M485.558,183.633L452.726,183.633L452.726,192.129L463.958,192.129L463.958,235.041L474.326,235.041L474.326,192.129L485.558,192.129L485.558,183.633Z" style="fill-opacity:0;fill-rule:nonzero;stroke:white;stroke-width:2.67px;"/>
        </g>
    </g>
</svg>
